<svg height="512" width="512" xmlns="http://www.w3.org/2000/svg"><path d="m0 0c23.92423221 20.90611001 38.66967059 50.24135425 40.921875 82.046875.02964844.80050781.05929687 1.60101563.08984375 2.42578125.03996094 1.03769531.07992187 2.07539063.12109375 3.14453125.41742741 21.87810712-4.3811706 41.84426519-15.12109375 60.85546875-.55558594.99644531-1.11117187 1.99289062-1.68359375 3.01953125-4.50066553 7.54428106-10.24296699 13.70008267-16.31640625 19.98046875-.65355469.69351563-1.30710937 1.38703125-1.98046875 2.1015625-3.9413464 4.09467109-8.19253884 7.86908364-13.01953125 10.8984375-.66 0-1.32 0-2 0 .34933594.47050781.69867188.94101562 1.05859375 1.42578125.45503906.62261719.91007813 1.24523437 1.37890625 1.88671875.45246094.61488281.90492188 1.22976563 1.37109375 1.86328125 2.19362519 3.35876381 2.35215058 6.29289151 2.37890625 10.19921875.01417969.93585938.02835938 1.87171875.04296875 2.8359375-.24378767 2.95024404-.99934367 5.11270362-2.23046875 7.7890625.49628906.34289062.99257813.68578125 1.50390625 1.0390625 6.1226184 4.71685592 8.90890507 9.98748159 12.05078125 16.8515625 1.38161121 3.17880889 1.38161121 3.17880889 3.4453125 6.109375 1.5546931 5.97958886.70797031 10.56298569-2 16-6.2184859 6.92917-17.44961804 6.64955613-26.125 7.5625-1.134375.12568359-2.26875.25136719-3.4375.38085937-3.47718092.37649749-6.9559615.72297676-10.4375 1.05664063-.99386719.10006348-1.98773438.20012695-3.01171875.30322266-12.87553684 1.11794789-25.82512168.93796115-38.73828125.94677734-1.28846832.00167175-2.57693665.00334351-3.90444946.00506592-20.29137127.00157695-40.20573606-.7535427-60.34555054-3.25506592-1.33396553-.13751539-2.66812099-.2731984-4.00244141-.40722656-1.33908792-.14758687-2.67811949-.29568615-4.01708984-.44433594-1.19343018-.12455566-2.38686035-.24911133-3.61645508-.37744141-4.69981265-1.07714698-8.00260596-3.221808-11.17651367-6.83349609-2.50210492-4.08238171-3.00146567-8.28407365-2.1875-12.9375 1.27281955-2.86170837 2.75808696-5.49402251 4.35546875-8.1875 1.56414159-2.6750165 2.85795143-5.37127315 4.14453125-8.1875 1.59441435-3.34565634 2.79326563-5.06069898 5.9375-7l2.5625-2.625c-.19963499-3.07619367-.85077899-5.91801375-1.53515625-8.921875-.91057569-6.02969448 1.86470499-10.83092253 4.53515625-16.078125-.83402344-.61746094-1.66804688-1.23492187-2.52734375-1.87109375-25.43654499-19.03758117-41.72416511-45.11558409-47.00390625-76.60546875-3.77111466-31.21168764 3.17912465-62.65936346 22.34765625-87.84375 19.95705828-24.49113056 47.00746564-42.02390022 78.98144531-45.51635742 32.95110224-2.4439343 63.65929254 4.7710127 89.19042969 26.36401367zm-142.98828125 8.47265625c-.71800781.57105469-1.43601563 1.14210938-2.17578125 1.73046875-20.86741133 17.383332-32.59143862 43.71272765-35.82421875 70.26953125-1.85969231 21.98989519 3.04055217 45.91339658 17.54296875 63.09765625 2.7091803 3.08172291 5.55978872 5.99703091 8.45703125 8.90234375 1.17175781 1.2065625 1.17175781 1.2065625 2.3671875 2.4375 18.81708366 18.24686901 48.78634317 27.02650462 74.47265625 26.7734375 27.59573282-1.05660806 51.26702252-14.34110189 69.97265625-34.0859375 13.68125736-15.93613125 21.8002225-34.74514224 26.1875-55.125.20109375-.928125.4021875-1.85625.609375-2.8125 2.91371032-23.7758762-.71726332-47.95481112-14.984375-67.625-16.39846005-20.47726484-40.42728437-33.64427345-66.625-36.5625-29.48021797-2.91024458-56.89871261 3.90566157-80 23zm8.875 185.0625c-2.36522795 3.70552378-2.56998979 5.61311906-1.875 9.9375 7.08114498 10.49962876 26.45365343 11.68023931 38 14 6.1488572 1.11860566 12.20558716 1.21793871 18.4375 1.25.99837891.020625 1.99675781.04125 3.02539063.0625 6.23786349.03280928 10.89482403-.58422128 16.53710937-3.3125 2.74735618-2.70131104 2.74735618-2.70131104 4-6-.84824888-2.66833651-.84824888-2.66833651-2-5-.80405273.02094727-1.60810547.04189453-2.43652344.06347656-23.63827388.53278849-45.39199149-.84946472-66.88378906-11.74707031-3.73630583-1.88678832-3.73630583-1.88678832-6.8046875.74609375zm-8.875 27.9375c-1.47520413 2.97598984-2.66475563 5.98170566-3.82421875 9.09375-1.00776568 2.4909557-1.96318694 4.20621502-3.61328125 6.28125-1.87942146 2.58418547-1.87942146 2.58418547-1.3125 5.875 1.5412741 3.06292271 1.5412741 3.06292271 5.01171875 3.82421875 6.02649619 1.32764266 12.16984335 1.86630204 18.30078125 2.48828125 1.17369141.12568359 2.34738281.25136719 3.55664063.38085937 3.62496859.37855058 7.25119176.72627158 10.88085937 1.05664063 1.09795898.10006348 2.19591797.20012695 3.32714844.30322266 11.42568173.89946856 22.86397788.91751876 34.31933593.93701171 3.50608873.00984304 7.01162284.04102348 10.51757813.07226563 2.2395799.0065193 4.47916392.01177396 6.71875.015625 1.0427005.0123468 2.085401.0246936 3.15969849.03741455 6.99531712.03888744 6.99531712.03888744 12.95748901-3.36553955 3.08521262-4.31929767 3.43414175-7.78959462 2.63671875-12.8828125-1.03324706-3.43570496-2.78742157-5.0277029-5.63671875-7.1171875-4.76561774-2.00811496-9.0678501-2.2278005-14.16015625-2.08984375-1.60464569.02311284-3.20930125.04554842-4.81396484.06738281-.83166687.01454224-1.66333374.02908448-2.52020264.04406739-14.72507394.23447012-29.04881285.12245437-43.50567627-3.02160645-.76473633-.16580566-1.52947266-.33161133-2.31738281-.50244141-6.39206345-1.42749793-12.60656028-3.022128-18.68261719-5.49755859-4.53141828-.69714127-7.97517444.59106961-11 4z" transform="translate(330.988281 201.527344)"/><path d="m0 0c10.03445312.61726131 19.37175557 5.61552455 26.1015625 13.08984375 4.89369573 6.29540757 9.3221057 12.8687272 13.55102539 19.625 5.68447991 9.06586012 11.03010076 14.91176915 20.40991211 20.2109375 2.0390625 1.1640625 2.0390625 1.1640625 3.0390625 2.1640625.375 2.375.375 2.375 0 5-3.64656282 3.0940533-7.33422887 3.54257146-12 4v2l2.3125.8125c2.61193202 1.1541095 4.01614222 1.90037883 5.6875 4.1875v4c-3.79070674.28430301-6.49071326-.08434584-9.9375-1.5625-4.08762884-1.61640076-6.76128818-1.76696547-11.0625-.4375-2.54116178 1.8037266-4.79170192 3.80512622-7 6 .55429687.40992188 1.10859375.81984375 1.6796875 1.2421875.72445312.53882813 1.44890625 1.07765625 2.1953125 1.6328125.71929687.53367187 1.43859375 1.06734375 2.1796875 1.6171875 1.9453125 1.5078125 1.9453125 1.5078125 3.9453125 3.5078125-.375 2.625-.375 2.625-1 5-3.4326021-.42907526-5.904047-1.44878138-8.875-3.125-4.1462256-2.10798759-6.56882947-2.31379069-11.125-.875-2.45355377 1.469703-4.77378835 3.03418253-7.08203125 4.72265625-1.91796875 1.27734375-1.91796875 1.27734375-3.91796875 1.27734375.51691406.59167969 1.03382813 1.18335938 1.56640625 1.79296875.65871094.79019531 1.31742187 1.58039063 1.99609375 2.39453125.66128906.77730469 1.32257813 1.55460937 2.00390625 2.35546875 1.43359375 2.45703125 1.43359375 2.45703125 1.1484375 5.2578125-.23589844.72574219-.47179687 1.45148438-.71484375 2.19921875-5.22048188-.63223829-7.24599009-2.90056691-10.7421875-6.6015625-3.34853549-2.07400641-5.48021115-1.22242431-9.2578125-.3984375-1.23621094.24878906-2.47242188.49757813-3.74609375.75390625-1.21816406.26683594-2.43632812.53367187-3.69140625.80859375-1.23621094.26941406-2.47242188.53882813-3.74609375.81640625-.92941406.20496094-1.85882813.40992188-2.81640625.62109375-.04898438.83144531-.09796875 1.66289062-.1484375 2.51953125-.11214844 1.63001953-.11214844 1.63001953-.2265625 3.29296875-.06960938 1.07894531-.13921875 2.15789062-.2109375 3.26953125-.4140625 2.91796875-.4140625 2.91796875-2.4140625 5.91796875-1.953125-.5859375-1.953125-.5859375-4-2-.609375-3.0390625-.609375-3.0390625-.75-6.625-.05671875-1.18851562-.1134375-2.37703125-.171875-3.6015625-.02578125-.91523438-.0515625-1.83046875-.078125-2.7734375-1.09054688-.05607422-1.09054688-.05607422-2.203125-.11328125-5.69259593-.3722082-10.52273497-1.07003754-15.921875-2.94921875-2.92657712-.95373922-2.92657712-.95373922-5.875-.9375-3.08771244 1.76501469-5.3452712 3.71872391-7.84375 6.2421875-.7115625.58007813-1.423125 1.16015625-2.15625 1.7578125-2.28125-.2421875-2.28125-.2421875-4-1 .40208382-5.62917348 2.28930302-8.00386479 6-12-7.65598173-6.27439155-7.65598173-6.27439155-17-8-2.66636898 1.17768085-5.15982529 2.48361309-7.66796875 3.96875-2.65581245 1.17442963-3.67306374 1.05816159-6.33203125.03125-.125-2.625-.125-2.625 1-6 3.13962308-2.37477453 6.50053619-4.20898585 10-6-3.22586142-3.20625132-5.93001536-5.65679738-10.3125-7.0625-4.14666429.07028245-7.37433925.98768395-11.2578125 2.37109375-2.5869593.73616044-4.75406228.81042872-7.4296875.69140625-.375-2.25-.375-2.25 0-5 4.97297297-4 4.97297297-4 8-4 0-.66 0-1.32 0-2-1.04800781-.18175781-1.04800781-.18175781-2.1171875-.3671875-.91007813-.16757812-1.82015625-.33515625-2.7578125-.5078125-.90492188-.16242188-1.80984375-.32484375-2.7421875-.4921875-2.3828125-.6328125-2.3828125-.6328125-4.3828125-2.6328125-.4375-2.4375-.4375-2.4375 0-5 2.0625-1.5625 2.0625-1.5625 5-3 10.8227404-5.5174755 18.0853934-14.08042666 25.3359375-23.5625 9.02890849-11.76947841 20.36107846-24.85699951 35.8515625-27.375l2.8125-.0625c1 1 1 1 1.0625 3.5625-.020625.804375-.04125 1.60875-.0625 2.4375-.89460938.4846875-1.78921875.969375-2.7109375 1.46875-13.13014265 7.0033783-13.13014265 7.0033783-23.2890625 17.53125.85980469-.51949219 1.71960938-1.03898437 2.60546875-1.57421875 19.18717816-11.40282229 38.22283255-16.59634757 60.27587891-11.06396484 13.28454098 4.00158909 24.76970309 12.687741 35.11865234 21.63818359-8.62432881-14.66135898-18.15871649-21.30381585-33-29-.042721-1.66611905-.04063832-3.33382885 0-5 1-1 1-1 2.8984375-1.08984375zm5.1015625 29.08984375c.63228516.90492188.63228516.90492188 1.27734375 1.828125.54785156.79921875 1.09570313 1.5984375 1.66015625 2.421875.54527344.78890625 1.09054687 1.5778125 1.65234375 2.390625 1.30638066 2.18574493 1.95996136 3.8747551 2.41015625 6.359375-1.175625-.33-2.35125-.66-3.5625-1-6.67004205-1.61769034-11.59088617-1.52853158-17.64453125 1.796875-4.10796071 2.75654008-6.45151052 6.5080212-7.79296875 11.203125-.47855451 5.2640996.08036646 8.57345883 3 13 4.56201844 4.51977752 7.70778299 7.14281273 14.25 7.1875 4.29402992-.02821307 7.75995299-.46207426 11.75-2.1875-1.65897132 4.66091941-3.27097468 8.84148523-6 13 4.4391214-1.44169631 7.50293324-3.88784158 10.9375-6.9375 1.14277248-.99031443 2.28736878-1.9785274 3.43359375-2.96484375.59151855-.50901855 1.18303711-1.01803711 1.79248047-1.54248047 3.05678025-2.58863204 6.18894238-5.07817213 9.33642578-7.55517578.57484131-.45624756 1.14968262-.91249512 1.74194336-1.38256836 3.13222531-2.45588152 6.29556168-4.65362853 9.75805664-6.61743164-2.76198265-2.24411091-5.5599003-4.40832538-8.4375-6.5-3.99043463-2.97015305-7.73972708-6.18564283-11.5-9.4375-8.25064489-8.51207457-8.25064489-8.51207457-18.0625-13.0625zm-63 2c-5.62023464 3.92134242-11.0274126 7.9036433-16.0625 12.5625-4.01225939 3.70510077-8.18561647 6.87841241-12.7109375 9.9296875-2.12796584 1.44104353-4.18329715 2.94970604-6.2265625 4.5078125.85658203.45826172.85658203.45826172 1.73046875.92578125 7.27933702 4.10836986 13.34196358 9.16223692 19.60839844 14.62646484 2.70383083 2.35651335 5.42593865 4.69026136 8.16113281 7.01025391 1.40765625 1.20849609 1.40765625 1.20849609 2.84375 2.44140625 2.51763066 1.89192539 4.68621034 3.00070002 7.65625 3.99609375-.38671875-.46148437-.7734375-.92296875-1.171875-1.3984375-8.72382946-10.92638047-11.14397423-22.8886769-9.828125-36.6015625 1.18863738-5.00169194 2.94489588-9.3385142 5.69921875-13.67578125.42925781-.76699219.85851562-1.53398437 1.30078125-2.32421875-.495-.99-.495-.99-1-2z" transform="translate(276.898438 233.910156)"/><path d="m0 0c1.9243074 1.9243074 1.31960764 5.4724247 1.4296875 8.10546875.07370959 1.47333285.14794548 2.94663945.22265625 4.41992187.11309224 2.32573447.22219908 4.65142888.32177734 6.97778321.09814424 2.24319417.21318604 4.48503572.33056641 6.72729492.02512665.68772995.0502533 1.3754599.07614136 2.08403015.32957844 5.91830531 1.99208098 9.92792417 6.00588989 14.2636261 4.78449899 3.69744899 10.7673486 5.26756396 16.42578125 7.171875 2.27808113.78431985 4.55546637 1.57066491 6.83203125 2.359375 1.50590698.50998535 1.50590698.50998535 3.04223633 1.03027344 2.31323242.86035156 2.31323242.86035156 3.31323242 1.86035156.25 2.9375.25 2.9375 0 6-3.405431 2.27028733-4.89925582 2.31152334-8.91796875 2.4921875-1.17240234.06574219-2.34480469.13148438-3.55273437.19921875-2.4580054.12141488-4.91635285.23611035-7.375.34375-10.80349123.61084501-10.80349123.61084501-19.55810547 6.40966797-4.89625758 6.74961116-6.62585945 15.64303997-8.90869141 23.55517578-.45787969 1.5537114-.916855 3.10710035-1.37695312 4.66015625-1.11619006 3.77634656-2.21743547 7.55675541-3.31054688 11.33984375-3.375.625-3.375.625-7 1-2.66115206-2.66115206-2.2447743-4.65335814-2.27645874-8.27249146.00099701-.86140594.00199402-1.72281188.00302124-2.61032104-.02030456-1.82552679-.04115562-3.65104757-.0625-5.4765625-.02251995-2.87667899-.03903692-5.75312-.04492188-8.62988281-.00958074-2.7774566-.04344239-5.55384087-.08007812-8.33105469.00504547-.84926056.01009094-1.69852112.01528931-2.57351685-.10679488-6.55259959-1.53636861-12.14004996-6.33023072-16.85153198-5.33650437-2.9936662-10.78090664-5.0668111-16.59912109-6.94213867-1.78036892-.5819947-3.55911036-1.16899905-5.3359375-1.76171875-.77649902-.25096436-1.55299805-.50192871-2.35302734-.76049805-1.93603516-.7902832-1.93603516-.7902832-3.93603516-2.7902832-.125-3.125-.125-3.125 0-6 3.57987979-1.60716078 6.54615518-2.29058545 10.45703125-2.4921875 1.5459082-.09861328 1.5459082-.09861328 3.12304687-.19921875 2.14283639-.12170793 4.28608519-.23637346 6.4296875-.34375 7.01153753-.46306728 13.5201702-1.0270336 18.40478516-6.57006836 3.88179639-5.74755334 6.22737637-12.42020461 8.77294922-18.83227539.86230765-2.16783382 1.73048414-4.33334553 2.60546875-6.49609375.37664795-.94931396.7532959-1.89862793 1.14135742-2.87670898 1.9622235-4.03188603 4.17311769-3.18778859 8.06567383-2.18969727zm-8 28c-1.11056923 1.5643502-2.18795235 3.15231093-3.25 4.75-4.96185158 7.15031051-10.06517827 10.91950981-18.6875 12.9375-.680625.103125-1.36125.20625-2.0625.3125.5775.43054688 1.155.86109375 1.75 1.3046875 7.58835951 5.7176181 12.980763 10.54636219 14.70703125 20.26953125.25135174 2.13481408.406763 4.28054074.54296875 6.42578125 1.72225991-2.23893788 3.25445765-4.43352045 4.6875-6.875 4.78557995-6.46699993 10.76851651-9.70014817 18.3125-12.125-.70125-.515625-1.4025-1.03125-2.125-1.5625-8.55688231-7.25474805-11.88527405-14.35256932-12.875-25.4375-.33 0-.66 0-1 0z" transform="translate(406 96)"/><path d="m0 0c2.4375-.4375 2.4375-.4375 5 0 2.80798333 2.97936056 3.57337807 5.63411374 4.28125 9.61328125.20238281 1.08345703.40476563 2.16691406.61328125 3.28320313.29970703 1.69092773.29970703 1.69092773.60546875 3.41601562 2.2391101 14.3249444 2.2391101 14.3249444 11.5 24.6875 3.53413411 1.62166963 6.83041374 2.42678181 10.66796875 3 1.05767578.165 2.11535156.33 3.20507813.5 2.22109408.33506193 4.44245224.66837771 6.6640625 1 1.05380859.165 2.10761718.33 3.19335937.5.96317139.144375 1.92634277.28875 2.91870117.4375 2.35083008.5625 2.35083008.5625 4.35083008 2.5625.25 2.5.25 2.5 0 5-2.5464042 2.5464042-4.43459691 2.77561492-7.92578125 3.62109375-1.18916016.29583984-2.37832031.59167969-3.60351563.89648437-2.51017425.61037279-5.020589 1.21975744-7.53125 1.828125-1.19302734.29712891-2.38605468.59425782-3.61523437.90039063-1.09223877.26482178-2.18447754.52964355-3.30981445.80249023-4.66644736 1.47283918-7.34479286 3.01396001-10.2019043 7.01391602-4.64545252 8.93178029-4.61206565 20.27628756-5.58007812 30.09960938-.11666016 1.06669921-.23332032 2.13339843-.35351563 3.23242187-.09724365.95753174-.1944873 1.91506348-.29467773 2.90161133-.66912603 3.09677005-1.70779191 5.15903837-3.58422852 7.70385742-2.5625.4375-2.5625.4375-5 0-2.96017531-2.96017531-2.95510121-6.52496231-3.5859375-10.515625-.2939295-1.74354716-.5882116-3.48703491-.8828125-5.23046875-.45492667-2.7486787-.9052921-5.49796323-1.34863281-8.24853516-.43112404-2.65509317-.88006831-5.30671499-1.33105469-7.95849609-.1261972-.81583557-.25239441-1.63167114-.38241577-2.472229-1.08201493-6.27772888-3.13745809-10.58890523-8.10195923-14.8168335-4.33315302-2.26208684-8.45445803-3.06470122-13.2421875-3.8828125-1.72689535-.31327487-3.45346373-.62835791-5.1796875-.9453125-.82725586-.14985352-1.65451172-.29970703-2.50683594-.45410156-3.51967799-.68645702-6.97020076-1.56627001-10.43847656-2.47558594-.33-1.98-.66-3.96-1-6 3.04556703-2.5830456 5.54722728-3.6024788 9.4296875-4.46484375 1.04285156-.24298828 2.08570313-.48597656 3.16015625-.73632813 2.18183268-.48903146 4.36412281-.97602668 6.546875-1.4609375 9.11688414-1.95567364 9.11688414-1.95567364 15.99511719-7.90478515 3.43995889-6.07683326 4.57231949-12.9834378 5.99316406-19.74560547.49696464-2.33063674.99932029-4.66013238 1.5078125-6.98828125.21543457-1.02262939.43086914-2.04525879.65283203-3.09887695.71435547-2.6003418.71435547-2.6003418 2.71435547-5.6003418zm2 28c-.21914062.71285156-.43828125 1.42570312-.6640625 2.16015625-2.99759098 9.05369957-6.08283143 14.40235776-14.7109375 18.77734375-1.53430009.70378662-3.07362865 1.39718857-4.625 2.0625.55816406.27585937 1.11632812.55171875 1.69140625.8359375 8.54214111 4.30720482 14.71338053 7.90021175 18.046875 17.23046875.48323533 1.62722101.88254704 3.27902631 1.26171875 4.93359375 2.63717696-1.31858848 2.74631271-2.47893059 3.8125-5.1875 3.76162298-8.63121491 8.77783472-12.12204495 17.1875-15.8125-2.34591251-1.56394167-4.33744331-2.6243912-6.875-3.75-6.73314088-3.36657044-9.46006115-8.38185046-12.23046875-15.1015625-.875791-2.10342816-1.85395492-4.12229328-2.89453125-6.1484375z" transform="translate(67 317)"/><path d="m0 0c.77429855-.00511093 1.54859711-.01022186 2.34635925-.01548767 2.56179007-.01391003 5.12331153-.01293819 7.68513489-.01063538 1.77975057-.00388618 3.55950022-.00822068 5.33924866-.01298523 3.73159287-.00746525 7.46309113-.00716874 11.19468689-.00190734 4.78298955.00579485 9.56559189-.01113517 14.34851742-.03434468 3.67600616-.01472893 7.35191889-.01561019 11.02794933-.01249027 1.76345969-.00051364 3.52692456-.00575945 5.29035568-.01581192 2.46580761-.01233086 4.93085872-.00559325 7.39665413.00600624.72896484-.00764374 1.45792969-.01528748 2.20898437-.02316284 4.12912212.04295291 6.54126001.47243545 9.54125977 3.39547729-.75 4.75-.75 4.75-3 7-2.60372066.20363264-5.10153159.28320857-7.70678711.27465821-.79526596.00511093-1.59053192.01022186-2.40989685.01548767-2.6369625.01393522-5.27366478.01293628-7.91065979.01063537-1.82841591.00388485-3.65683092.00821908-5.48524475.01298523-3.83592146.00747072-7.67175089.00716484-11.50767517.00190735-4.92099599-.00579503-9.84161565.01113299-14.7625494.03434467-3.77719172.01471669-7.55429238.01561186-11.33150768.01249028-1.81452556.00051428-3.62905608.00577191-5.44355393.01581192-2.53556477.01230694-5.07039114.00560761-7.60594368-.00600624-.75283264.00764373-1.50566528.01528747-2.28131103.02316284-5.0504262-.05125226-5.0504262-.05125226-7.55244446-1.7585907-1.00242615-1.6368866-1.00242615-1.6368866-.87742615-4.1993866 1.95100999-5.43495639 6.59768835-4.72875871 11.49584961-4.7121582z" transform="translate(23.62085 285.725342)"/><path d="m0 0 2.875.8125c1.52698431 3.05396862 1.16488703 6.24730272 1.17700195 9.59912109.0065712.7839061.0131424 1.5678122.01991272 2.37547303.01974516 2.59961537.0313974 5.199173.04136658 7.79884338.00407553.8868108.00815105 1.7736216.01235008 2.68730545.02086453 4.6924453.03516538 9.38486132.04453469 14.07734299.01107383 4.85145553.04548366 9.70245357.0851717 14.55374717.02611732 3.72660628.0345157 7.45310266.03810977 11.17979241.00487753 1.78860316.01652456 3.57720103.035038 5.36571503.02429144 2.5019545.02344531 5.00271351.01648521 7.50474929.01281006.73988663.02562012 1.47977326.03881836 2.24208069-.03625387 3.57199274-.24665016 5.29404572-2.53816223 8.10694885-.97546028.74689591-.97546028.74689591-1.97062683 1.50888062-4.875-1.75-4.875-1.75-6-4-.10855037-2.54707709-.15731254-5.0672322-.16113281-7.61499023-.00744736-1.17826859-.00744736-1.17826859-.01504517-2.38034058-.01463261-2.60442981-.02142489-5.20879874-.02694702-7.81326294-.00574988-1.80599469-.01150763-3.61198936-.01727295-5.41798401-.01051265-3.78881617-.01635381-7.57761111-.01983643-11.36643982-.00548995-4.86043802-.02952747-9.72059664-.05797195-14.58094692-.01860016-3.73085451-.02383054-7.4616413-.02536392-11.19253826-.00303223-1.79220485-.01107989-3.58440835-.02418518-5.37656784-.01700848-2.50439961-.01519341-5.0081111-.00868988-7.51254463-.00921479-.74348191-.01842957-1.48696381-.02792359-2.25297547.02399342-2.94160183.05643498-4.99819991 1.71133423-7.4871521 1.67303467-1.0042572 1.67303467-1.0042572 4.79803467-.8167572z" transform="translate(257.125 47.1875)"/><path d="m0 0c.77415253-.0049649 1.54830505-.00992981 2.34591675-.01504517 2.56715781-.01463374 5.13425382-.02142556 7.70144653-.02694702 1.78117882-.00575039 3.56235761-.01150813 5.34353638-.01727295 3.73754159-.01051339 7.47506166-.01635386 11.21261596-.01983642 4.79083929-.00548593 9.58139453-.02951456 14.3721447-.05797196 3.68028281-.01861713 7.36049707-.02383148 11.04082299-.02536392 1.76625878-.00302908 3.53251628-.01106619 5.29872894-.02418518 2.47067035-.01704165 4.94064508-.01518508 7.41135025-.00868988.73053589-.00921478 1.46107178-.01842957 2.21374512-.02792358 4.13506765.03407938 6.5492087.45436572 9.55236816 3.38436889-.375 2.9375-.375 2.9375-1 6-3.05396862 1.52698431-6.24730272 1.16488703-9.59912109 1.17700196-.7839061.00657119-1.5678122.01314239-2.37547302.01991272-2.59961538.01974516-5.199173.03139739-7.79884339.04136657-.8868108.00407553-1.7736216.00815106-2.68730545.01235008-4.6924453.02086453-9.38486131.03516538-14.07734299.04453469-4.85145553.01107383-9.70245357.04548366-14.55374717.0851717-3.72660628.02611733-7.45310266.0345157-11.17979241.03810978-1.78860316.00487752-3.57720103.01652455-5.36571502.03503799-2.50195451.02429144-5.00271352.02344532-7.5047493.01648522-1.10982994.01921508-1.10982994.01921508-2.24208069.03881836-3.57199273-.03625388-5.29404572-.24665017-8.10694885-2.53816224-.49793061-.65030685-.99586121-1.3006137-1.50888062-1.97062683 2.36647071-6.59231126 4.97986887-6.15119961 11.50732422-6.16113281z" transform="translate(423.507324 285.838867)"/><path d="m0 0c2.09266891 1.69396492 3.92930369 3.35176029 5.81591797 5.25073242.55828995.54646179 1.11657989 1.09292359 1.69178772 1.65594483 1.83873706 1.80589033 3.66217589 3.62633186 5.48448181 5.4487915 1.27283594 1.26252178 2.54604483 2.52466767 3.8196106 3.78645325 2.66480446 2.64537812 5.32147825 5.29862352 7.97335815 7.95695495 3.40142351 3.40742931 6.8273212 6.78902582 10.26040459 10.1645155 2.63542857 2.59849097 5.25470781 5.21280146 7.86963463 7.83190822 1.25677548 1.25389945 2.51917315 2.50218965 3.78719329 3.74471665 1.76980355 1.73791902 3.5160388 3.49657207 5.25806046 5.2622776.79309822.7647741.79309822.7647741 1.60221863 1.54499817 1.42729187 1.47396851 1.42729187 1.47396851 3.43733215 4.35270691-.18502808 3.36860657-.18502808 3.36860657-1 6-2.62367249.81971741-2.62367249.81971741-6 1-2.34947659-1.63674578-4.05338845-3.09424467-6.02124023-5.11547852-.56818955-.5559233-1.13637909-1.11184661-1.7217865-1.68461608-1.87318539-1.84237726-3.71960283-3.70918954-5.56556702-5.57881165-1.29317193-1.28845698-2.5873815-2.57587329-3.88258362-3.86228943-2.71043034-2.70010828-5.40779095-5.41247735-8.09666443-8.13404846-3.44901109-3.48889464-6.92849754-6.94541861-10.41837978-10.39337254-2.67810858-2.652822-5.33932972-5.32208154-7.9957304-7.99662494-1.27670773-1.28137968-2.55864242-2.55757314-3.84580612-3.82844925-1.79640636-1.77863923-3.56885932-3.5781567-5.33676338-5.3850689-.53651185-.52234222-1.07302369-1.04468444-1.62579346-1.58285522-2.59740904-2.70467328-3.49809768-3.9341038-3.43440247-7.75221252 1.57778738-4.48621886 3.82532131-4.02596895 7.94471741-2.68617249z" transform="translate(373 401)"/><path d="m0 0c.86581192.27050674 1.73162384.54101349 2.62367249.81971741.8197174 2.62367248.8197174 2.62367248 1 6-1.63674579 2.34947659-3.09424468 4.05338845-5.11547852 6.02124023-.55592331.56818955-1.11184662 1.13637909-1.68461609 1.7217865-1.84237725 1.87318539-3.70918953 3.71960283-5.57881164 5.56556702-1.28845698 1.29317192-2.57587329 2.58738149-3.86228943 3.88258362-2.70010828 2.71043034-5.41247735 5.40779094-8.13404847 8.09666442-3.48889463 3.4490111-6.9454186 6.92849755-10.39337253 10.41837979-2.65282201 2.67810857-5.32208155 5.33932972-7.99662495 7.9957304-1.28137967 1.27670772-2.55757313 2.55864242-3.82844925 3.84580612-1.77863923 1.79640636-3.57815669 3.56885931-5.38506889 5.33676338-.52234222.53651184-1.04468445 1.07302368-1.58285522 1.62579346-1.50822449 1.44841003-1.50822449 1.44841003-4.43838501 3.48968506-3.37632752-.1802826-3.37632752-.1802826-6-1-.81971741-2.62367249-.81971741-2.62367249-1-6 1.63674578-2.34947659 3.09424467-4.05338846 5.11547851-6.02124024.55592331-.56818954 1.11184662-1.13637909 1.68461609-1.7217865 1.84237725-1.87318538 3.70918953-3.71960283 5.57881165-5.56556701 1.28845698-1.29317193 2.57587328-2.5873815 3.86228942-3.88258362 2.70010828-2.71043034 5.41247735-5.40779095 8.13404847-8.09666443 3.48889463-3.44901109 6.9454186-6.92849754 10.39337253-10.41837978 2.65282201-2.67810858 5.32208155-5.33932972 7.99662495-7.9957304 1.28137967-1.27670773 2.55757313-2.55864243 3.82844925-3.84580613 1.77863923-1.79640635 3.57815669-3.56885931 5.38506889-5.33676338.52234223-.53651184 1.04468445-1.07302368 1.58285523-1.62579345 2.7686565-2.65885477 3.8994751-3.51846073 7.81471252-3.30940247z" transform="translate(143.376328 400.180283)"/><path d="m0 0c2.09266891 1.69396492 3.92930369 3.35176029 5.81591797 5.25073242.55828995.54646179 1.11657989 1.09292359 1.69178772 1.65594483 1.83873706 1.80589033 3.66217589 3.62633186 5.48448181 5.4487915 1.27283594 1.26252178 2.54604483 2.52466767 3.8196106 3.78645325 2.66480446 2.64537812 5.32147825 5.29862352 7.97335815 7.95695495 3.40142351 3.40742931 6.8273212 6.78902582 10.26040459 10.1645155 2.63542857 2.59849097 5.25470781 5.21280146 7.86963463 7.83190822 1.25677548 1.25389945 2.51917315 2.50218965 3.78719329 3.74471665 1.76980355 1.73791902 3.5160388 3.49657207 5.25806046 5.2622776.79309822.7647741.79309822.7647741 1.60221863 1.54499817 1.42729187 1.47396851 1.42729187 1.47396851 3.43733215 4.35270691-.18502808 3.36860657-.18502808 3.36860657-1 6-2.62367249.81971741-2.62367249.81971741-6 1-2.34947659-1.63674578-4.05338845-3.09424467-6.02124023-5.11547852-.56818955-.5559233-1.13637909-1.11184661-1.7217865-1.68461608-1.87318539-1.84237726-3.71960283-3.70918954-5.56556702-5.57881165-1.29317193-1.28845698-2.5873815-2.57587329-3.88258362-3.86228943-2.71043034-2.70010828-5.40779095-5.41247735-8.09666443-8.13404846-3.44901109-3.48889464-6.92849754-6.94541861-10.41837978-10.39337254-2.67810858-2.652822-5.33932972-5.32208154-7.9957304-7.99662494-1.27670773-1.28137968-2.55864242-2.55757314-3.84580612-3.82844925-1.79640636-1.77863923-3.56885932-3.5781567-5.33676338-5.3850689-.53651185-.52234222-1.07302369-1.04468444-1.62579346-1.58285522-2.59740904-2.70467328-3.49809768-3.9341038-3.43440247-7.75221252 1.57778738-4.48621886 3.82532131-4.02596895 7.94471741-2.68617249z" transform="translate(90 118)"/><path d="m0 0c2 2 2 2 2.3125 5-.1546875 1.485-.1546875 1.485-.3125 3-3 2-3 2-6.1875 1.625-1.3921875-.309375-1.3921875-.309375-2.8125-.625-1.33157895-5.44736842-1.33157895-5.44736842.125-7.875 2.46977849-1.4818671 4.04113833-1.4883156 6.875-1.125z" transform="translate(321 136)"/><path d="m0 0 2 2c-.375 3.625-.375 3.625-1 7-5.41139241 1.32278481-5.41139241 1.32278481-7.9375-.0625-1.58916796-2.89789451-.93773205-4.84052504-.0625-7.9375 2.51281795-1.25640898 4.21697081-1.20872719 7-1z" transform="translate(409 224)"/><path d="m0 0c2 3 2 3 1.625 6.1875-.20625.928125-.4125 1.85625-.625 2.8125-5.44736842 1.33157895-5.44736842 1.33157895-7.875-.125-1.49477553-2.49129254-1.56430917-4.01949042-1.125-6.875 3.20808915-2.1387261 4.27698497-2.47730962 8-2z" transform="translate(109 224)"/><path d="m0 0c.625 2.8125.625 2.8125 1 6-.99 1.485-.99 1.485-2 3-3 .3125-3 .3125-6 0-2-2-2-2-2.3125-4.4375.3125-2.5625.3125-2.5625 1.4375-4.4375 2.79651052-1.67790631 4.81190532-.87375648 7.875-.125z" transform="translate(436 214)"/><path d="m0 0 1 7c-3.20808915 2.1387261-4.27698497 2.47730962-8 2-2-3-2-3-1.75-6.125.37125-1.423125.37125-1.423125.75-2.875 2.86177057-1.43088528 4.93375773-.59991697 8 0z" transform="translate(84 214)"/><path d="m0 0c2.5625.3125 2.5625.3125 4.4375 1.4375 1.67790631 2.79651052.87375648 4.81190532.125 7.875-2.8125.625-2.8125.625-6 1-.99-.66-1.98-1.32-3-2-.3125-3-.3125-3 0-6 2-2 2-2 4.4375-2.3125z" transform="translate(193.4375 135.6875)"/><path d="m0 0 2.8125.625c1.33157895 5.44736842 1.33157895 5.44736842-.125 7.875-2.49129254 1.49477553-4.01949042 1.56430917-6.875 1.125-2.1387261-3.20808915-2.47730962-4.27698497-2-8 3-2 3-2 6.1875-1.625z" transform="translate(330.1875 110.375)"/><path d="m0 0c.625 3.375.625 3.375 1 7-.66.66-1.32 1.32-2 2-3.625-.375-3.625-.375-7-1-1.32278481-5.41139241-1.32278481-5.41139241.0625-7.9375 2.84843248-1.56204362 4.87254903-.81171024 7.9375-.0625z" transform="translate(187 111)"/><path d="m0 0 2.8125.625c1.32278481 5.41139241 1.32278481 5.41139241-.0625 7.9375-2.84843248 1.56204362-4.87254903.81171024-7.9375.0625-.33-2.31-.66-4.62-1-7 3-2 3-2 6.1875-1.625z" transform="translate(433.1875 359.375)"/><path d="m0 0c.763125.20625 1.52625.4125 2.3125.625.625 3.375.625 3.375 1 7-2 2-2 2-5 2.3125-.99-.103125-1.98-.20625-3-.3125-2-3-2-3-1.8125-5.5625 1.2040206-3.61206179 2.73603849-4.58770393 6.5-4.0625z" transform="translate(407.6875 348.375)"/></svg>