<svg height="512" width="512" xmlns="http://www.w3.org/2000/svg"><path d="m0 0c2.20888301-.0081411 4.41775786-.01883029 6.62661743-.03186035 5.97118405-.02724463 11.94174284-.0167927 17.91293717.00227451 6.2644195.01524636 12.52878735.00108727 18.79320907-.00831699 11.19042577-.01159681 22.38062316.00698755 33.57099426.03755602 10.12499424.02680296 20.24957559.02214562 30.37456238-.00551257 11.78713362-.03218403 23.57406638-.04402154 35.36124516-.02632641 6.22883731.00932889 12.45739087.01067093 18.68620968-.00921893 5.85753907-.01739955 11.71430252-.00518761 17.57175827.02936554 2.14288295.00789785 4.28583177.00571635 6.42868805-.00757599 21.70117902-.1221496 21.70117902-.1221496 30.75580978 6.79598236 6.31810879 6.4501245 9.24442815 12.47351449 9.26006222 21.61371994.00380567.64213235.00761134 1.28426471.01153233 1.94585562.01029391 2.14841654.00641377 4.29656779.00256011 6.44500207.0044536 1.55722856.00976805 3.11445486.01586873 4.67167783.01417571 4.27695016.01584337 8.55382763.01540309 12.83079791.00164857 4.61364113.0147158 9.22725234.02619278 13.84087754.02284544 10.08677089.03077003 20.17352073.03582645 30.26031398.00325735 6.29881383.00978003 12.59762155.01700139 18.89643193.01956482 17.44174121.03596989 34.88347675.03887653 52.32522964.00018757 1.11603071.00037514 2.23206141.00056839 3.38191123.00036625 2.26243326.00072995 4.52486652.00109112 6.78729977.00018281 1.12306468.00036562 2.24612935.00055397 3.40322629.00027082 1.6866544.00027082 1.6866544.00054712 3.40738263.00354205 18.22205402.03056692 36.44398989.06795077 54.66600293.03807969 18.71098991.05744608 37.42192118.05774814 56.1329507.00058462 10.5045098.00907986 21.00887863.03799767 31.51335215.02450924 8.94412741.03179978 17.88806242.01675247 26.83221433-.00717057 4.56232168-.00630509 9.12426342.0164106 13.68654254.0206127 4.17999862.01796857 8.35932575-.00287485 12.53931728-.00349052 1.50874195.00139664 3.01753258.01570444 4.52621072.09035114 10.18696379-1.18975333 17.84974225-7.77639847 25.91477672-1.04414062.89912109-1.04414062.89912109-2.109375 1.81640625-.68578125.61746094-1.3715625 1.23492187-2.078125 1.87109375-7.45302247 4.71806832-14.99209841 5.11809224-23.61743164 5.03198242-1.16198914.00043808-2.32397827.00087616-3.5211792.00132751-3.81464846-.00207861-7.62884936-.02536658-11.44342041-.04893493-2.65515385-.00559926-5.31028337-.01001549-7.96543884-.01286316-6.25777788-.00929171-12.51539689-.03386608-18.77310509-.06404847-7.12943387-.03363406-14.25887568-.05005256-21.38836926-.06508631-14.65439181-.03128378-29.30865896-.08398776-43.96293056-.15097081-.30019043.9492334-.60038086 1.89846679-.90966797 2.87646484-1.07242721 3.0722422-1.9328523 4.50852016-4.21533203 6.74853516-.80824219.82371093-.80824219.82371093-1.6328125 1.6640625-6.48003151 4.94469303-14.25826993 7.20042949-21.92578125 9.625-1.71379852.55034157-1.71379852.55034157-3.46221924 1.11180114-3.11169006.99763422-6.22517829 1.9893836-9.33962631 2.97836686-2.63546574.83809727-5.26932501 1.68118021-7.90317631 2.5243349-20.76070277 6.64584563-41.54893047 13.20544671-62.34136486 19.75121975-15.75719526 4.96308929-31.49313637 9.98940473-47.21728516 15.05618287-3.56507204 1.14788073-7.13100118 2.29305503-10.69726562 3.43722534-2.27215387.72919055-4.54428968 1.45843737-6.81640625 2.18774414-1.08907654.34956253-2.17815308.69912506-3.30023193 1.05928039-5.68812667 1.82858969-11.36962591 3.67512692-17.04200745 5.5519867-2.964332.97856311-5.93299375 1.94343258-8.90284729 2.90509033-1.87988809.61449806-3.7532964 1.24871649-5.62625122 1.8840332-10.30426159 3.31744772-20.45828126 4.51479596-30.51928711-.17382812-10.99150522-6.07530471-14.023855-16.94091017-17.59765625-28.28125-.41311777-1.28710269-.82706024-2.57394091-1.24176025-3.86053467-1.11163147-3.45717318-2.21131162-6.91803928-3.30863572-10.379776-1.16529026-3.66914088-2.34157878-7.33475584-3.51625442-11.00090027-2.84346382-8.88346279-5.66607083-17.77349042-8.48413086-26.66503906-.4081087-1.28703213-.81622997-2.57406028-1.22436523-3.86108399-3.31015237-10.4416399-6.61116131-20.88614563-9.90014649-31.33447265-5.85338914-18.59434623-11.76105573-37.17093758-17.68798828-55.74194336-.46670196-1.46249173-.93339711-2.92498562-1.40008545-4.38748169-.93514179-2.93049888-1.87029025-5.86099564-2.80545044-8.79148865-.23158687-.72572267-.46317375-1.45144535-.70177841-2.19915962-.46831963-1.46753817-.93665512-2.93507127-1.40500641-4.40259934-6.01923578-18.86085272-12.0214058-37.72712933-18.02166366-56.59402656-.64676278-2.03360762-1.29353122-4.06721344-1.94030762-6.10081673-.43148657-1.3566905-.86296444-2.71338376-1.2944336-4.0700798-3.19747782-10.05371023-6.39936783-20.10600812-9.60353279-30.15758896-1.4224789-4.46285849-2.84426713-8.92593707-4.26604175-13.38901997-1.12381032-3.52752099-2.24806553-7.05489867-3.37349797-10.5819025-2.42093087-7.5877142-4.83330206-15.17803522-7.23187255-22.77285767-.77211166-2.44053284-1.54718752-4.8801296-2.32501221-7.31884765-1.13273009-3.55466819-2.25438691-7.11265725-3.37350464-10.67163086-.5063372-1.57751038-.5063372-1.57751038-1.02290344-3.18688965-3.06321593-9.81919229-4.67153924-19.07240939-.48490906-28.87561035 5.87342911-9.51057154 13.60874642-13.80285358 24.0625-16.9375 1.28729661-.40582238 2.57388524-.81389545 3.85986328-1.22387696 2.98184031-.94569629 5.96800778-1.8759662 8.95751953-2.79711914 5.77605271-1.78227128 11.53786974-3.60872705 17.29980469-5.43603515 7.01721218-2.22361705 14.03531224-4.44428003 21.05712891-6.65332032 17.76864828-5.59014462 35.51785278-11.23918599 53.25819969-16.91848182 5.37907039-1.72174833 10.75930931-3.43980512 16.14023781-5.15573692 2.27042278-.72413169 4.54084198-1.44827459 6.81126022-2.17242051 1.49573606-.47704752 2.99148642-.95405019 4.48725128-1.43100738 8.34649014-2.66199832 16.68873023-5.33622838 25.0214138-8.04115677 5.35717718-1.7387345 10.71921268-3.46201348 16.0832119-5.17957306 2.15010038-.69200983 4.29825336-1.3901056 6.44421387-2.09484863 23.75438127-7.79659459 23.75438127-7.79659459 33.57989502-4.52142334.02578125-.97839844.0515625-1.95679688.078125-2.96484375.4132034-9.55063318 1.38433095-18.32490666 8.24577332-25.63267136 10.74139675-8.98790737 22.32840856-8.26114024 35.59407043-8.17885208zm-30.29296875 17.33886719c-.48210937.57878906-.96421875 1.15757812-1.4609375 1.75390625-2.42552631 3.50805986-2.29257264 6.74568502-2.30107689 10.87128734-.00507454 1.3038295-.01014908 2.607659-.0153774 3.95099849-.0006017 1.45557489-.00110077 2.91114983-.00150836 4.36672479-.00401414 1.53956409-.00845228 3.07912712-.01327955 4.61868888-.0119767 4.24196489-.01761649 8.4839184-.02218116 12.72589689-.0059519 4.57070273-.01756273 9.14139183-.02829051 13.71208537-.02453282 11.04374312-.03915212 22.08749075-.05206006 33.13125274-.00371119 3.1183741-.00768448 6.23674775-.01175267 9.3551214-.02523493 19.35801842-.04729153 38.71603754-.05972815 58.07406878-.00292977 4.48479115-.00589142 8.96958227-.00890541 13.45437336-.00074605 1.11469494-.0014921 2.22938988-.00226076 3.37786345-.01265666 18.06192779-.04588348 36.12375721-.08754107 54.18563901-.0424032 18.53685769-.06598589 37.07366499-.07121332 55.61057106-.00341586 10.41060127-.01519181 20.82104879-.04810274 31.23160237-.02797941 8.86519828-.03900908 17.7302113-.02780453 26.59545031.00519197 4.52358023.00226498 9.04677235-.02246555 13.57029638-.02245785 4.14238095-.02177994 8.28409422-.00279612 12.42648659.00280489 1.49736011-.00282584 2.99476516-.01781294 4.4920529-.0768924 8.18326261-.0527168 14.64646766 5.63009469 20.93313364 5.90006521 5.74878148 12.14418048 6.29670089 19.98178101 6.26742553 1.34066998.00679667 1.34066998.00679667 2.70842421.01373065 2.98922271.01264106 5.97826317.01102382 8.96750962.00937116 2.14551528.00598538 4.29102841.01279095 6.4365387.02035523 5.82438779.01766507 11.64871681.02235557 17.4731288.02363157 3.63941703.00142174 7.27881912.00569176 10.91823244.01099443 12.6981641.01850118 25.39628621.0266704 38.09446335.0250969 11.83452983-.00120178 23.6688774.01990756 35.5033611.05148732 10.16322794.02615322 20.32639631.03688039 30.48965764.03560186 6.06891423-.00050987 12.13766644.0051872 18.20654714.0263561 5.70788146.0193664 11.41544605.01951756 17.1233387.00496673 2.09297397-.00209108 4.18596769.00263059 6.27890778.01472092 2.86115888.01545566 5.72122555.00614202 8.58236122-.00926208 1.23708334.01543069 1.23708334.01543069 2.49915826.03117311 6.57259955-.07799345 11.67863983-1.99309994 16.76002753-6.20143068.44601562-.54011719.89203125-1.08023438 1.3515625-1.63671875.46148437-.53238281.92296875-1.06476563 1.3984375-1.61328125 2.87910693-4.86880822 3.47668924-10.08632761 3.48103809-15.64478207.0058322-1.28740992.01166439-2.57481985.01767332-3.9012422-.00363266-1.4162946-.00745701-2.83258872-.0114525-4.24888235.00302209-1.51414349.00691186-3.02828546.01159257-4.54242474.01028128-4.15314361.00809785-8.3062009.0038194-12.4593516-.00246696-4.48201725.00654654-8.9640137.01403749-13.44602334.01274956-8.77754579.0145404-17.55506099.01219974-26.33261448-.00178292-7.13411246-.00003407-14.26821565.00422444-21.402327.00089279-1.52294905.00089279-1.52294905.00180361-3.07666474.00121174-2.06256241.00242588-4.12512482.00364237-6.18768724.01087639-19.34258216.00871249-38.68514689.00261516-58.02773004-.00517004-17.6962886.0060884-35.39252217.02509822-53.08879988.01937001-18.17086486.02763592-36.34170367.02387674-54.51257891-.00191321-10.20145938.0005873-20.4028719.01471454-30.60432285.01190405-8.68391891.0133296-17.36776212.00120984-26.05168205-.00589535-4.43034691-.00696998-8.86055529.0050024-13.29089303.01083601-4.056972.00778272-8.11368944-.00626169-12.17064941-.00265321-1.4662759-.00026079-2.93257159.00773587-4.39882808.04551562-8.96944985-.30967852-15.67345852-5.07350711-23.43673474-5.75627508-5.60070008-11.85058821-6.84126647-19.65541077-6.75793457-.90844506-.00623997-1.81689012-.01247993-2.75286382-.01890898-3.02701869-.01588349-6.05322694-.00334388-9.0802508.00926542-2.17699145-.00542313-4.35397923-.01254686-6.53096008-.02124023-5.90072633-.01821228-11.80117245-.0111746-17.70190359.00151634-6.17868825.01013713-12.35735275.00073245-18.53604197-.00554466-10.37427573-.00727376-20.7484375.00230482-31.12269592.0213623-11.99142342.02177392-23.98245495.01471248-35.97388083-.00730562-10.2999968-.01815481-20.59991176-.02071206-30.89991939-.01024532-6.14987524.00623369-12.29962264.0070737-18.44948965-.00614596-5.78098149-.01155913-11.56161237-.00353118-17.342556.01957703-2.12079855.00528644-4.24162664.00377445-6.36241341-.00505066-2.89645979-.0109412-5.79179819.00279129-8.68818665.02272034-.83794367-.00892289-1.67588734-.01784578-2.53922325-.02703905-7.13484156.09513202-12.43884602 2.40148616-17.05170387 8.09747362zm-37.44921875 30.6015625c-1.06464981.33919464-2.12929962.67838928-3.22621155 1.02786255-3.54923871 1.13359365-7.09300524 2.28341645-10.6370697 3.43307495-2.53838578.81394742-5.07706332 1.62691576-7.61621094 2.43847656-5.42407508 1.73524323-10.84575468 3.47779438-16.26611328 5.22460937-8.36800201 2.69585846-16.74384232 5.36680758-25.12158203 8.03222657-2.82927738.90034961-5.65853575 1.80075892-8.48779297 2.70117187-.70490066.22431576-1.40980133.44863152-2.13606262.67974472-7.93161717 2.52442748-15.86090048 5.05615927-23.79020691 7.58783341-11.59064703 3.70042828-23.18262657 7.39664722-34.77590561 11.08882141-4.75969565 1.51590895-9.51925636 3.03224159-14.27883339 4.54852295-3.79759058 1.20976894-7.5952662 2.41926953-11.39313698 3.62815857-3.54299301 1.12777295-7.08574141 2.2563112-10.62831688 3.38539505-1.89990729.60531394-3.80007344 1.20981526-5.70025062 1.81428146-2.28655424.72901867-4.57215915 1.46102396-6.85664368 2.19650269-2.21180047.71156931-4.42616134 1.41521956-6.64276123 2.11169433-1.59873459.51219086-1.59873459.51219086-3.22976684 1.03472901-.94173569.2979245-1.88347138.595849-2.85374451.90280151-5.1292721 2.02330636-8.30127861 5.28850165-11.47267151 9.68753052-3.04626017 9.49716405-.25276459 18.37201857 2.79296875 27.50390625.41426009 1.28127058.82704475 2.56301898 1.23847961 3.84519958.88361288 2.74341938 1.77703078 5.48336335 2.67851258 8.22096253 1.44467224 4.38753701 2.86701491 8.78212042 4.28613281 13.17797851 1.73519291 5.37033714 3.47536216 10.73900819 5.22216225 16.10558129 3.05258394 9.38005709 6.06578412 18.7721023 9.05127525 28.17371559.21411718.6742206.42823437 1.3484412.64883995 2.04309273 1.07653881 3.39062334 2.15232928 6.78148352 3.22777748 10.17245292 1.95698138 6.16924349 3.92068022 12.33634997 5.88377953 18.50364876 1.09445687 3.43856922 2.18849336 6.87727219 3.28257179 10.31596184.43749798 1.37500064.87499798 2.75000064 1.3125 4.125 23.62499999 74.24999996 23.62499999 74.24999996 24.28126335 76.31254291.43745476 1.37485719.87491026 2.74971413 1.31236649 4.12457085 1.09444819 3.43968319 2.18888358 6.87937045 3.28329277 10.31906605 1.96039938 6.16143445 3.92088282 12.32284209 5.88185692 18.48409366 1.08307538 3.40296127 2.16607409 6.80594693 3.24903297 10.20894528.21486179.67515844.42972359 1.35031688.65109634 2.04593467 2.98642013 9.38471358 5.96926044 18.77055886 8.94955063 28.15722085 1.66870103 5.2556509 3.33837655 10.51099208 5.00825882 15.76626777 1.132563 3.56454037 2.26459023 7.1292488 3.3952446 10.69439507.42895029 1.35229644.8579053 2.70459138 1.28686524 4.05688476.20806652.6561775.41613304 1.31235501.6305046 1.98841667 1.39092018 4.38267012 2.79672174 8.76039351 4.20640946 13.13707161 1.40218305 4.36065622 2.75107601 8.73122237 4.04882812 13.12402344.29460114.96314621.58920227 1.92629242.89273072 2.91862488.5325563 1.74142744 1.04597867 3.488907 1.53363037 5.24343872 2.17541871 6.96016261 6.45451193 11.0358521 12.6790924 14.71112061 8.29774956 3.41507062 17.71214907-.56464527 25.66700745-3.2066803 1.34185439-.4338338 2.68414265-.86632752 4.02682495-1.29759217 2.87678742-.92700669 5.75044182-1.86296127 8.62194824-2.80619812 4.59850667-1.51040652 9.20341841-3.0005768 13.80947876-4.48776245 5.62577161-1.81778184 11.25003068-3.64010243 16.87237454-5.46845913 13.42631973-4.36546656 26.87655846-8.65465046 40.33087063-12.93291378 4.96021316-1.57742715 9.91899999-3.15927525 14.8770771-4.74340248 14.07721066-4.49646839 28.1615698-8.96851183 42.2608242-13.39542198 4.61090553-1.44884101 9.2202694-2.90258061 13.82960415-4.35641003 4.38092655-1.38108145 8.7643742-2.75374346 13.14992237-4.12007331 2.69689131-.84238913 5.3912401-1.69268846 8.08495903-2.54516125 1.83475687-.57796567 3.67255959-1.14623451 5.51044464-1.71417427 7.65746247-2.43436088 13.17542497-4.41578567 17.98114014-11.09336853-19.94762829-1.29948574-35.89077712 1.75323566-54.625 8.375-2.57290604.87947671-5.15032877 1.74527733-7.72827148 2.60986328-3.9753674 1.33594298-7.94948658 2.67500992-11.91716004 4.03366089-12.04837906 4.12480834-24.17517229 7.97943462-36.33106994 11.77554321-5.81376933 1.81574561-11.62404346 3.64255777-17.43365479 5.47155762-1.17981445.37122986-2.35962891.74245971-3.57519531 1.12493896-9.02099257 2.84546418-18.02340262 5.74588924-27.02194023 8.66141892-4.55583786 1.47464687-9.11385805 2.94253931-13.67181301 4.41062736-4.41051344 1.42161402-8.81711727 2.85460759-13.2211876 4.29604912-2.73888061.89338398-5.48121001 1.77578763-8.22455692 2.65534973-1.87724424.60556731-3.75018039 1.22443947-5.62293816 1.84374237-14.31498939 4.56296497-14.31498939 4.56296497-21.43971252 1.55474854-5.90883457-4.8958915-7.67594296-10.43482286-9.8828125-17.546875-.34442642-1.07932801-.68885284-2.15865601-1.04371643-3.27069092-1.13905373-3.57843737-2.26247313-7.16158527-3.38597107-10.74493408-.80479405-2.53871929-1.6104533-5.07714812-2.41723633-7.61523438-1.88560078-5.93867221-3.76017173-11.8807593-5.62960338-17.82453918-2.06283685-6.55848999-4.13466231-13.11412882-6.20706654-19.66960144-2.17746986-6.89048901-4.3534205-13.78144946-6.52490234-20.67382813-6.06790265-19.25418618-12.19797676-38.48813174-18.34619141-57.71679687-.36254316-1.13393566-.36254316-1.13393566-.73241043-2.29077912-2.20888343-6.90877645-4.41800318-13.81747732-6.62737656-20.7260971-5.18042561-16.19993733-10.34934379-32.40353959-15.51521301-48.60812378-.22395699-.70251389-.44791397-1.40502777-.67865753-2.12882996-3.16500096-9.92828258-6.32888064-19.85692225-9.49211884-29.7857666-.72006483-2.26012548-1.44016911-4.52023839-2.16027832-6.78034973-2.92660009-9.18553315-5.85226736-18.37136277-8.77679443-27.55755615-.91661073-2.87911101-1.83348806-5.75813688-2.75061035-8.63708496-1.26927164-3.98448641-2.53749001-7.9693073-3.80560303-11.9541626-.36879272-1.15730622-.73758545-2.31461243-1.11755371-3.50698853-1.03580335-3.25662939-2.06547704-6.51513198-3.09338379-9.77426147-.37372742-1.17457764-.74745483-2.34915528-1.13250732-3.55932617-.36281067-1.15411377-.72562134-2.30822754-1.09942627-3.49731446-.32745209-1.03596313-.65490418-2.07192627-.99227906-3.13928222-1.48768285-5.37721772-1.34565007-9.12298213.47421265-14.49157715 4.56199297-7.07673115 15.85947992-8.80560013 23.47265625-10.9296875 2.27734375-.3828125 2.27734375-.3828125 5.27734375.6171875v6c-.83978394.28665527-.83978394.28665527-1.6965332.57910156-2.54355176.87677756-5.07960101 1.77355603-7.6159668 2.67089844-1.32161133.45052734-1.32161133.45052734-2.66992187.91015625-.8475586.30292969-1.69511719.60585937-2.56835938.91796875-.78028564.27231445-1.56057129.5446289-2.36450195.82519531-2.74385069 1.44342163-3.79819078 2.23213345-5.0847168 5.09667969.45522712 3.19767364 1.07817021 5.92869299 2 9 .28202271.94943481.56404541 1.89886963.85461426 2.87707519 1.02432556 3.34776046 2.08843299 6.68094025 3.16101074 10.01354981.40755444 1.276195.81475046 2.5525045 1.22161865 3.82891845.8740153 2.73933042 1.7505012 5.47785296 2.62896729 8.21575928 1.41045721 4.39597921 2.8154399 8.79369679 4.21972656 13.19165039 1.97643074 6.18816827 3.95523066 12.37557414 5.93554687 18.5625 2.8479327 8.89843651 5.68812776 17.79932825 8.52539063 26.70117188.22522087.70660011.45044174 1.41320022.68248749 2.14121246.9084307 2.85013186 1.81682817 5.70027431 2.72514725 8.55044174 1.60274854 5.02909005 3.20625082 10.05793932 4.8101387 15.08666611 6.68745633 20.96801846 13.3635727 41.9396295 20.03356933 62.91320801 4.69436494 14.76118783 9.39220451 29.52124688 14.1028862 44.27723694.70793766 2.21769041 1.41572283 4.43542943 2.12346268 6.65318298 2.09887117 6.5767042 4.19828363 13.15323188 6.30081368 19.72876739 4.4138076 13.80664032 8.80438502 27.61925283 13.08981132 41.46635437.60017815 1.93812736 1.20172439 3.87582422 1.80380249 5.81336213 1.84755542 5.94656531 3.68616907 11.89548754 5.50463867 17.85101318.64627278 2.0844765 1.29305128 4.1687963 1.94042969 6.25292969.4219313 1.4041214.4219313 1.4041214.85238647 2.83660888 2.01898769 6.77327577 2.01898769 6.77327577 6.48355103 12.03839112 7.19054008.12437911 14.12548763-2.75280614 20.8984375-4.953125 1.28797025-.41271534 2.57614864-.8247816 3.86451721-1.23625183 2.76172955-.88347254 5.52200485-1.77130058 8.28120423-2.66264344 4.37834512-1.41436635 8.75971792-2.81917897 13.14163208-4.22244262 5.35996024-1.7171175 10.7191969-3.43645874 16.07754612-5.158597 14.45589361-4.6454887 28.92617513-9.2456012 43.39688015-13.8446989 4.18246836-1.32939601 8.36445387-2.66030595 12.54632568-3.99157715 13.59261743-4.32675434 27.18787523-8.64482542 40.79345703-12.93066406 0-.33 0-.66 0-1-1.04341553-.01458252-2.08683105-.02916504-3.16186523-.04418946-3.90853426-.05841447-7.81651812-.13564061-11.72460938-.21826171-1.68447876-.03304797-3.36906289-.06114114-5.05371094-.08398438-22.1419709-.30834745-22.1419709-.30834745-29.87231445-7.27856445-.70769531-.61101563-1.41539062-1.22203125-2.14453125-1.8515625-5.8931172-7.27907019-6.64207894-14.66257171-6.65234375-23.77734375-.01653625-1.14145981-.03307251-2.28291962-.05010986-3.45896912-.04826819-3.61659745-.06980477-7.23277501-.09051514-10.84962463-.02817725-2.46421359-.05810711-4.92840781-.08984375-7.39257813-.07366267-6.01489826-.12542904-12.02967948-.16015625-18.04492187-3.00412333 1.19005111-5.93299562 2.40796829-8.8125 3.875-.68320313.34546875-1.36640625.6909375-2.0703125 1.046875-.69867188.35578125-1.39734375.7115625-2.1171875 1.078125-12.3701847 6.29920844-12.3701847 6.29920844-20 6 .33-2.31.66-4.62 1-7 .81082031-.29132813 1.62164062-.58265625 2.45703125-.8828125 7.5792792-2.80583328 14.60628406-5.97235733 21.54296875-10.1171875.81210938-.41507813 1.62421875-.83015625 2.4609375-1.2578125 2.42563341-1.42133607 3.91944422-2.43298385 5.5390625-4.7421875.65891719-4.41210954.47265077-8.5754636 0-13-.86625.804375-1.7325 1.60875-2.625 2.4375-15.39579293 13.09883995-34.65252076 21.50439866-55.16015625 20.84375-21.31811412-1.8650112-40.07347603-8.86646127-55.08984375-24.7109375-13.28471876-16.0686488-20.06503576-34.61099666-19.125-55.5703125 2.31-.33 4.62-.66 7-1 .09796875 1.14855468.1959375 2.29710937.296875 3.48046875 2.05568378 22.14347152 9.24606143 39.19635502 25.6953125 54.35546875 13.19700513 10.70486682 31.11717778 16.40270904 48.0078125 15.1640625 19.41749935-2.70991475 34.86912428-10.37475224 48-25 .88171875-.92232422.88171875-.92232422 1.78125-1.86328125 1.79678051-2.74014789 1.79678051-2.74014789 1.21875-9.13671875-10.56-1.32-21.12-2.64-32-4-.2876584 7.49290685-.2876584 7.49290685-.56811523 14.98608398-.24214458 6.04951886-.68011419 12.0060688-1.43188477 18.01391602-4.75 1-4.75 1-7 1-.27400635-.58265625-.5480127-1.1653125-.83032227-1.765625-1.14150454-2.1805572-2.39907032-4.02569396-3.88452148-5.984375-.52142578-.6909375-1.04285156-1.381875-1.58007812-2.09375-.81307618-1.06734375-.81307618-1.06734375-1.64257813-2.15625-.80727539-1.06734375-.80727539-1.06734375-1.63085937-2.15625-1.00560909-1.32923914-2.01253544-2.65748355-3.02124024-3.984375-1.47741368-1.94772072-2.94516538-3.90248126-4.41040039-5.859375-4.47036443.40350082-6.79288291 3.54370812-9.6875 6.625-12.85338375 13.22152324-12.85338375 13.22152324-18.06640625 13.546875-.74121094-.05671875-1.48242188-.1134375-2.24609375-.171875.50674016-8.65458849 1.344175-17.14957644 2.59765625-25.72265625.34480432-2.80864881.48240578-5.45382289.40234375-8.27734375-7.50210336-1.28791474-15.04019236-1.36437119-22.63476563-1.60546875-1.04478515-.03738282-2.08957031-.07476563-3.16601562-.11328125-.95044189-.03029297-1.90088379-.06058594-2.88012695-.09179688-2.3190918-.18945312-2.3190918-.18945312-4.3190918-1.18945312-.57421875-2.55859375-.57421875-2.55859375 0-6 2.74699342-2.78958246 5.94834275-4.88179822 9.1875-7.0625 1.72538515-1.19528919 3.44811697-2.39441895 5.16796875-3.59765625.80872559-.56477051 1.61745117-1.12954102 2.45068359-1.71142578 2.69844976-2.00296683 4.93164129-4.15076338 7.19384766-6.62841797-3.35234027-3.9252857-6.75879315-7.77272724-10.359375-11.47265625-.58821533-.61149903-1.17643066-1.22299805-1.7824707-1.85302735-1.18641904-1.23013345-2.38277164-2.45077174-3.58935547-3.66113281-4.16607425-4.34683744-4.16607425-4.34683744-4.71020508-7.87646484.44140625-2.13671875.44140625-2.13671875 1.44140625-3.13671875 2.35061041.03978898 4.65704547.14808695 7 .3125 1.05477539.06948852 1.05477539.06948852 2.13085937.14038086 7.99215742.56520001 15.92002847 1.55348012 23.86914063 2.54711914.66-10.89 1.32-21.78 2-33l5-1c4.49225566 3.56928821 7.70117179 8.44965839 11.0625 13.0625 4.57898347 6.29994356 4.57898347 6.29994356 9.9375 11.9375.70125-.71285156 1.4025-1.42570313 2.125-2.16015625 4.96024666-5.016364 9.93744826-9.92620828 15.31640625-14.5 1.23362554-1.06048511 2.40827626-2.18952627 3.55859375-3.33984375 3.125-.125 3.125-.125 6 0 .88492107 3.60955709 1.00132087 6.42335051.44140625 10.08984375-.13857422.94939453-.27714844 1.89878906-.41992188 2.87695312-.15146484.98033203-.30292968 1.96066407-.45898437 2.97070313-1.33550168 8.48837502-1.33550168 8.48837502-1.5625 17.0625 3.49992696.79706768 6.7142231 1.11863027 10.30078125 1.09765625.97646484-.00322266 1.95292969-.00644532 2.95898438-.00976563 1.00740234-.0083789 2.01480468-.01675781 3.05273437-.02539062 1.02673828-.00451172 2.05347656-.00902344 3.11132813-.01367188 2.52545069-.01174628 5.05078092-.02817248 7.57617187-.04882812 1.08007497-10.53634066 1.08007497-10.53634066-2.9375-19.9375-1.31023834-1.39671408-2.66634518-2.75166575-4.0625-4.0625-.67546875-.68449219-1.3509375-1.36898438-2.046875-2.07421875-13.20423411-12.65004181-29.91799998-18.42411456-47.953125-18.92578125-19.45190872.75409984-36.7006364 8.86135617-50 23-6.7995168 8.37286777-11.17539735 16.99603935-15 27-1.98 0-3.96 0-6 0-2.15858046-6.8483535 1.95776918-12.97493116 5-19 2.09727205-3.55191206 4.42137541-6.78336521 7-10 .65613281-.83144531 1.31226563-1.66289063 1.98828125-2.51953125 8.27495406-9.84825429 18.94660229-17.05170805 31.01171875-21.48046875 1.57201172-.5878125 1.57201172-.5878125 3.17578125-1.1875 20.58681819-6.59510972 42.1702329-3.67722657 61.16870117 5.96923828 5.77784923 3.09499478 10.71138683 6.9286493 15.65551758 11.21826172l3 2c.82412425-4.55733665 1.05296581-8.46611325 0-13-3.70039196-4.09729869-8.1602194-6.49913764-13-9-.5986084-.32726074-1.1972168-.65452149-1.81396484-.99169922-20.00681131-10.86769554-43.32203679-13.5542936-65.29541016-7.26220703-24.7261733 7.73765036-42.24254792 23.62750196-54.41015625 46.0546875-9.86569979 20.11887419-11.41703216 43.98647021-4.19140625 65.1953125 5.08026724 13.76537909 12.41729852 24.71026726 22.7109375 35.00390625l2.25 2.25c10.80005183 10.16475466 22.88967476 15.32374229 36.75 19.75 1.85484517.62298348 3.70917874 1.24749753 5.5625 1.875 1.134375.37125 2.26875.7425 3.4375 1.125.042721 1.66611905.04063832 3.33382885 0 5-1 1-1 1-2.7578125 1.0546875-18.04318594-1.36961478-34.78956452-10.38218477-48.2421875-22.0546875-1.03125-.78375-2.0625-1.5675-3.125-2.375-17.87782765-16.32323394-27.20906698-40.24746175-28.6875-64-1.12927255-25.05090465 6.83881655-49.88781697 23.8125-68.625.72574219-.81855469 1.45148438-1.63710938 2.19921875-2.48046875 16.13171321-17.19827276 39.59669257-27.73392798 63.15625-28.7578125 21.87294989-.50577228 41.28054997 4.1180536 59.64453125 16.23828125h2c.21084073-11.65902998.3695928-23.31758849.46630955-34.97815418.04647831-5.41772821.10924938-10.83412929.21264553-16.25109387 1.60852547-35.59452459 1.60852547-35.59452459-9.67895508-68.77075195-1.82558042-1.86794009-1.82558042-1.86794009-4-3-8.1298787 1.0504292-16.01889373 4.12419208-23.81250381 6.625597-2.4881643.79830915-4.97795346 1.59135271-7.46822739 2.38305473-7.07394133 2.25004204-14.14467311 4.5101029-21.21487427 6.77186585-4.34015008 1.38802308-8.68199857 2.77062448-13.02486801 4.15011406-2.44469317.77844521-4.88728519 1.56325086-7.32989883 2.34819221-1.50695911.47910333-3.01402355.95787549-4.52120972 1.43626404-1.00702469.32652054-1.00702469.32652054-2.03439331.65963745-4.21083735 1.32677843-8.22812391 2.10944479-12.59402466 2.62527466 0-2.31 0-4.62 0-7 19.89424871-6.75793284 39.85362348-13.31140335 59.88217163-19.66064453 2.28205515-.724703 4.56301004-1.45288003 6.84283447-2.18457032 3.23051431-1.03556515 6.46496245-2.05779016 9.70077515-3.07666015 1.44795959-.46789948 1.44795959-.46789948 2.9251709-.94525147 6.16543723-1.92006509 11.50892666-3.32611958 17.77404785-.94537353 2.875 1.8125 2.875 1.8125 7.875 6.8125 0-6.6 0-13.2 0-20-9.4390112-4.7195056-15.26607734-2.97417531-24.82421875.1640625zm-46.17578125 175.8359375c-.02505615.68626465-.0501123 1.37252929-.07592773 2.07958984-.11578654 3.09866833-.23859112 6.19701939-.36157227 9.29541016-.03931641 1.08023437-.07863281 2.16046875-.11914063 3.2734375-.04189453 1.03125-.08378906 2.0625-.12695312 3.125-.03665771.95310058-.07331543 1.90620117-.11108398 2.88818359-.20532227 2.33837891-.20532227 2.33837891-1.20532227 4.33837891-8.04212755.16677223-15.98603754-.35334021-24-1 1.81877477 4.62861844 5.52125127 7.56743604 9.09960937 10.84570312 2.18723644 2.08821375 3.79662676 3.92601637 5.05273438 6.68945313-.15234375 2.46484375-.15234375 2.46484375-2.1640625 4.94921875-3.19887316 2.6929076-6.44789968 5.26871876-9.80078125 7.765625-2.08683971 1.55781346-4.14408008 3.13441177-6.1875 4.75v1c.72179443.05534912 1.44358887.11069824 2.18725586.16772461 3.25046582.25189078 6.50034035.5107384 9.75024414.76977539 1.13630859.08701172 2.27261719.17402344 3.44335937.26367187 1.07958985.08701172 2.15917969.17402344 3.27148438.26367188 1.00023193.07855224 2.00046387.15710449 3.03100586.23803711 2.31665039.29711914 2.31665039.29711914 3.31665039 1.29711914-.06573886 2.14846552-.20432333 4.29481589-.375 6.4375-.09925781 1.25941406-.19851562 2.51882812-.30078125 3.81640625-.39700619 4.58709562-.82850046 9.16860999-1.32421875 13.74609375 5.4271785-3.14205072 9.24912518-7.30832473 13.4375-11.953125 2.5625-2.046875 2.5625-2.046875 5.58984375-2.66015625 4.02324564.83002571 5.08949018 2.42510166 7.53515625 5.67578125.76441406.99773437 1.52882812 1.99546875 2.31640625 3.0234375 1.71775672 2.35993833 3.43148693 4.72142071 5.12109375 7.1015625.66.928125 1.32 1.85625 2 2.8125h1c.01981934-.71655762.03963867-1.43311524.06005859-2.17138672.0950366-3.23491958.2048016-6.46917422.31494141-9.70361328.04640625-1.69189453.04640625-1.69189453.09375-3.41796875.03867188-1.07636719.07734375-2.15273438.1171875-3.26171875.0314209-.99499512.0628418-1.98999024.09521484-3.01513672.31884766-2.43017578.31884766-2.43017578 2.31884766-4.43017578 1.8918457-.04345703 1.8918457-.04345703 4.17578125.2421875.82822266.09667969 1.65644531.19335937 2.50976562.29296875.86689454.11214843 1.73378907.22429687 2.62695313.33984375 1.70414633.20804198 3.40856876.41383682 5.11328125.6171875.79615723.09506836 1.59231445.19013672 2.41259766.28808593 2.39817289.24377181 4.7526454.30913185 7.16162109.21972657-.804375-.94875-1.60875-1.8975-2.4375-2.875-.53625-.63421875-1.0725-1.2684375-1.625-1.921875-1.41649754-1.61069478-2.88240104-3.17831133-4.375-4.71875-1.2375-1.29164063-1.2375-1.29164063-2.5-2.609375-.79277344-.80695313-1.58554688-1.61390625-2.40234375-2.4453125-1.66015625-2.4296875-1.66015625-2.4296875-1.73828125-4.94921875 1.45353736-3.34418923 3.39458767-4.81510577 6.265625-7.04296875l3-2.34375c2.88320415-2.14638532 5.76075663-4.19672034 8.8125-6.09375-3.18791292-2.12527528-4.17057083-2.271374-7.8515625-2.37890625-.93328125-.03416016-1.8665625-.06832031-2.828125-.10351563-.97195312-.02642578-1.94390625-.05285156-2.9453125-.08007812-1.92981963-.05967206-3.85952361-.12325772-5.7890625-.19140625-.8554541-.02392823-1.7109082-.04785645-2.59228516-.07250977-1.99365234-.17358398-1.99365234-.17358398-2.99365234-1.17358398-.20567481-5.75889456.26811638-11.29328586 1-17 .09539062-.77472657.19078125-1.54945313.2890625-2.34765625.23267299-1.88465121.47118575-3.76857997.7109375-5.65234375-.94875.804375-1.8975 1.60875-2.875 2.4375-.63421875.53753906-1.2684375 1.07507812-1.921875 1.62890625-1.60547387 1.40905951-3.17390485 2.86065836-4.71875 4.3359375-.86109375.81597656-1.7221875 1.63195312-2.609375 2.47265625-.80695313.78117187-1.61390625 1.56234375-2.4453125 2.3671875-2.4296875 1.7578125-2.4296875 1.7578125-4.8515625 2.47265625-4.2630438-1.18202578-6.15632221-4.56915392-8.703125-8.02734375-1.04288426-1.37214871-2.08711023-2.74327891-3.1328125-4.11328125-.68280029-.91906128-.68280029-.91906128-1.37939453-1.85668946-1.3524336-1.70447337-2.79509284-3.21118898-4.36279297-4.71752929zm66.18359375 37.84375c-.76376953.58652343-1.52753906 1.17304687-2.31445312 1.77734375-.80244141.62003906-1.60488282 1.24007812-2.43164063 1.87890625-1.20946289.93005859-1.20946289.93005859-2.44335937 1.87890625-1.99970338 1.53823336-3.99765646 3.07868588-5.99414063 4.62109375 1.73001178 3.71675712 3.84663202 6.02029649 6.8125 8.875 2.89127173 2.82442151 5.70592975 5.60732498 8.25 8.75l1.9375 2.375h1c0-10.89 0-21.78 0-33-1.89287498 0-3.38154055 1.73837198-4.81640625 2.84375z" transform="translate(284.917969 4.223633)"/><path d="m0 0c17.92498483 14.41792258 29.65579897 34.64157958 32.68359375 57.52734375 2.11281957 23.18884692-2.95980559 45.83863311-17.43359375 64.53515625-15.40477993 18.36947342-34.80592121 30.53419025-58.9375 33.6875-1.43571928.10982181-2.87376562.19174139-4.3125.25-.8971875.03996094-1.794375.07992187-2.71875.12109375-22.80229189.51005127-44.23004854-6.87498691-61.28125-22.12109375-.83273437-.73863281-1.66546875-1.47726562-2.5234375-2.23828125-15.72963247-14.78585452-25.53932405-36.0443073-26.6796875-57.6015625-.46872609-24.53796004 6.83723184-47.96280763 23.91577148-66.01513672 31.44897437-31.75713863 81.80269933-35.14421294 117.28735352-8.14501953zm-50-9c.41507812.72058594.83015625 1.44117188 1.2578125 2.18359375 3.91164882 6.81674366 7.77480902 13.65821802 11.60083008 20.5234375 6.39816553 11.4751342 12.93105316 22.86095187 19.57495117 34.1953125 3.71975532 6.34812231 7.39536983 12.721271 11.06640625 19.09765625 7.11948745 12.36105134 14.2988524 24.68635662 21.5 37 7.97886663-7.97886663 9.02472139-24.49234944 9.375-35.125-.35051845-19.06430898-6.87804994-36.44399814-19.375-50.875-.59683594-.79277344-1.19367188-1.58554688-1.80859375-2.40234375-11.82528617-14.01749608-30.35808466-22.5634217-48.37890625-24.28515625-1.60347126-.11437347-3.2074779-.22246975-4.8125-.3125zm-55 19c-.99.721875-1.98 1.44375-3 2.1875-15.04766283 12.8861201-22.68536593 33.55065624-24.33984375 52.7578125-.36151655 13.85331424 2.94994146 26.42143827 8.33984375 39.0546875 2.98885268-2.77737346 5.01050908-5.43928991 6.9609375-9.015625.54640137-.99104736 1.09280273-1.98209473 1.65576172-3.00317383.87035889-1.59944458.87035889-1.59944458 1.75830078-3.23120117 1.25860283-2.28094971 2.51906605-4.56087373 3.78125-6.83984375.32064423-.5799321.64128845-1.1598642.97164917-1.75737 3.16229729-5.70645537 6.44250927-11.34042941 9.74710083-16.96528625 5.41833133-9.23778577 10.76205955-18.51613274 16.06448364-27.82077026 3.74999215-6.580421 7.50875784-13.15527558 11.30270386-19.71047974.51624687-.89236862.51624687-.89236862 1.04292297-1.80276489 1.64141224-2.83651593 3.2849612-5.67176335 4.93144226-8.50534058 2.73524426-4.72269677 5.43736903-9.41883935 7.78344727-14.34814453-16.99023075-.79177774-34.49569638 8.1737631-47 19zm50-7c-.37697021.67877197-.75394043 1.35754395-1.14233398 2.05688477-13.52606759 24.32797815-13.52606759 24.32797815-19.3671875 33.70117187-1.9143316 2.90274519-1.9143316 2.90274519-2.49047852 6.24194336.78503906-.20496094 1.57007813-.40992188 2.37890625-.62109375 14.7341317-3.77844604 25.81903416-3.86705949 40.62109375-.37890625 1.66510561.34104573 3.33120099.67751164 5 1-1.33483425-3.5253012-2.89269639-6.75328447-4.7578125-10.02734375-.53987549-.95124756-1.07975098-1.90249512-1.63598633-2.88256836-.85694458-1.49865601-.85694458-1.49865601-1.73120117-3.02758789-.58096436-1.0216626-1.16192871-2.0433252-1.76049805-3.09594727-1.70164127-2.99068472-3.40750484-5.97892252-5.11450195-8.96655273-.87902102-1.54160123-1.75794084-3.08326017-2.63671875-4.625-1.78382488-3.12726079-3.57181365-6.25210935-5.36328125-9.375-.66 0-1.32 0-2 0zm-35.9375 63.0625c-2.21710187 2.61379103-2.21710187 2.61379103-2.1875 4.9375 5.27323007 9.37463124 15.10169409 15.5903626 25.125 19 12.66987483 3.45901419 24.85440673 2.35404663 36.6875-3.5625 6.32667481-3.69752801 13.93139432-9.29418295 16.3125-16.4375-9.21181855-11.01933851-18.09108355-17.43319613-32.1875-20.75-16.93402018-1.50524624-32.21134135 4.26774578-43.75 16.8125zm-8.0625 13.9375c-1.52363489 2.08676806-1.52363489 2.08676806-3.0390625 4.77734375-.87011719 1.48209961-.87011719 1.48209961-1.7578125 2.99414063-.60328125 1.04478515-1.2065625 2.08957031-1.828125 3.16601562-.61101562 1.04091797-1.22203125 2.08183594-1.8515625 3.15429688-2.97075174 4.21855392-2.97075174 4.21855392-4.5234375 8.90820312h116c-4.84527764-8.90340454-4.84527764-8.90340454-9.875-17.6875-.89332031-1.52173828-.89332031-1.52173828-1.8046875-3.07421875-.43570313-.73863281-.87140625-1.47726563-1.3203125-2.23828125-3.11729461 1.44125964-5.01642052 3.04162886-7.40234375 5.5078125-10.92727313 10.2059128-24.98855834 15.13934228-39.875 14.73828125-14.32293659-1.29461263-27.12636693-6.39221961-37.72265625-16.24609375-.53496094-.72960937-1.06992187-1.45921875-1.62109375-2.2109375-.45503906-.59039062-.91007812-1.18078125-1.37890625-1.7890625-.66 0-1.32 0-2 0zm-19 32c2.39286508 4.78573016 5.34153944 8.13600795 9 12 .68835938.72703125 1.37671875 1.4540625 2.0859375 2.203125 14.18888514 13.84990154 33.36242386 20.35273398 52.9140625 21.046875 21.74198281-.27102195 40.65492927-9.05661036 56-24.25 5.4186796-4.8198368 5.4186796-4.8198368 8-11-42.24 0-84.48 0-128 0z" transform="translate(430 146)"/><path d="m0 0c.83423555-.00623996 1.66847111-.01247993 2.52798653-.01890898 2.77595814-.01586613 5.55103038-.00335102 8.32699394.00926543 1.99803171-.00542396 3.99605942-.01254815 5.99407959-.02124024 5.41321406-.01820362 10.82612247-.01117795 16.23934173.00151634 5.67106181.01014295 11.34209785.00073072 17.01316071-.00554466 9.52267138-.00727261 19.04521858.00230123 28.56787109.02136231 11.0018541.02176792 22.00341166.01471628 33.00525856-.00730563 9.45416168-.01816493 18.9082342-.02070695 28.36240769-.01024532 5.6429766.00622888 11.28581391.00708711 16.92878151-.00614595 5.30576678-.0115737 10.61115207-.00350473 15.91687774.01957702 1.94460925.00527893 3.88925072.00378732 5.83384705-.00505066 2.65967341-.0109714 5.3181332.00282694 7.9777298.02272034.76499376-.00892289 1.52998752-.01784577 2.31816292-.02703905 5.44861315.07876086 9.82803044 1.39485083 14.33466911 4.53497362 3.8364212 4.50578954 4.58466323 8.98254405 4.4609375 14.83203125-.00091644.7178215-.00183289 1.43564301-.0027771 2.17521668-.00599927 1.50343008-.02163363 3.0068503-.04653931 4.51008605-.03680217 2.30651491-.04101684 4.61143327-.04052734 6.9182129-.00982187 1.46550873-.0214748 2.93100659-.03515625 4.39648437-.00222565.68955277-.0044513 1.37910553-.00674439 2.08955383-.09692992 4.84615172-.09692992 4.84615172-2.32919311 7.07841492-2.5.25-2.5.25-5 0-2.85746471-2.85746471-2.26978143-4.87494651-2.30859375-8.87109375-.02515837-1.39258234-.05055642-2.78516037-.07617188-4.17773437-.02875821-2.19668479-.05277385-4.39329472-.0715332-6.5900879-.02164406-2.11945339-.0610788-4.23802789-.10229492-6.35717773-.02018189-1.90543579-.02018189-1.90543579-.04077149-3.84936523-.1645356-3.02749291-.1645356-3.02749291-1.42788791-4.82746983-3.09177072-2.07984103-6.33629067-1.7428359-9.9373312-1.71475124-.82053504-.00538554-1.64107007-.01077108-2.48646981-.01631981-2.75922344-.01434802-5.51797174-.0071591-8.27721733-.00005287-1.97422676-.0057-3.94845022-.01266282-5.92266845-.02079773-5.36980166-.01798757-10.73944041-.01675251-16.10926318-.01105762-4.47834706.00308382-8.95666245-.00299159-13.43500501-.00903875-10.5626428-.01406204-21.12520475-.01247001-31.68784851-.00109809-10.90695864.01148293-21.81367145-.00259366-32.72059769-.02939648-9.35547723-.02213183-18.71087715-.02880006-28.06637871-.02292358-5.59151386.0033768-11.18287011.00090659-16.77436203-.01625103-5.25724799-.01542694-10.51413086-.01156089-15.77136421.00730514-1.93177786.0036977-3.86358252.00054323-5.79533577-.00988578-2.63287108-.01313114-5.26451931-.00173309-7.89733696.01599121-.76838288-.00960501-1.53676576-.01921002-2.32843298-.02910608-3.37905655.04695475-5.42320548.2966372-8.23726278 2.23107618-1.83667226 2.76755923-2.02752413 4.2824309-2.03139591 7.58820629-.01102249 1.0712059-.02204499 2.1424118-.03340149 3.24607849.00817245 1.1700206.01634491 2.3400412.02476501 3.54551697-.00712509 1.23607498-.01425018 2.47214996-.02159118 3.74568176-.01268217 2.68555035-.01814342 5.36996318-.01123429 8.05542374.01078331 4.24364549-.00658997 8.48689128-.02781296 12.73048019-.03025269 6.70882859-.04195442 13.41753877-.04557645 20.12642992-.00665197 12.02297316-.03558069 24.04586488-.08509636 36.06873703-.01652775 4.22108037-.02190911 8.44198858-.01840961 12.66309821.00053828 3.23595287-.01124292 6.47186877-.0207479 9.7078054.004124 1.17406906.00824799 2.34813812.01249695 3.55778503-.00807426 1.59834938-.00807426 1.59834938-.01631164 3.22898865-.00033549.92950281-.00067097 1.85900562-.00101662 2.81667518-.25053978 2.21832848-.25053978 2.21832848-2.25053978 4.21832848-2.5.25-2.5.25-5 0-2.56431409-2.56431409-2.25471098-3.52172409-2.26742554-7.08401489-.01279495-1.61492089-.01279495-1.61492089-.02584839-3.26246643.00090638-1.18648636.00181275-2.37297272.00274658-3.59541321-.00671722-1.24565231-.01343444-2.49130463-.02035522-3.77470398-.01578051-3.42393751-.02235745-6.84763248-.02363157-10.27158976-.00142064-2.1405229-.00568874-4.28102033-.01099444-6.42153692-.01852083-7.47216531-.02666879-14.94425918-.02509689-22.41644668.00119924-6.95619653-.01985482-13.91208168-.05148733-20.86819947-.02620463-5.97635151-.03687809-11.95260168-.03560185-17.92901016.00050878-3.56732266-.00512603-7.13436924-.0263561-10.70163452-.02307007-3.98569595-.01383581-7.97097053-.0017891-11.95672226-.01685852-1.76151146-.01685852-1.76151146-.03405761-3.55860901.0497578-6.48610548.3150148-11.97844745 4.51989746-17.15965271 5.27552362-3.73562789 10.32971549-4.5816874 16.65283203-4.50793457z" transform="translate(282.652832 25.492065)"/><path d="m0 0c2.5.25 2.5.25 4.5 2.25.251849 1.92144465.251849 1.92144465.25447559 4.32108688.0058322.91293155.01166439 1.82586309.01767332 2.76645923-.00377933 1.00951005-.00755865 2.0190201-.0114525 3.05912137.00382555 1.06736617.0076511 2.13473235.01159257 3.23444295.01037387 3.60055139.0063295 7.20094461.00236922 10.80150676.00434412 2.57180937.00952626 5.14361745.01548767 7.71542358.01277452 6.27563077.01453717 12.55121882.01219974 18.8268604-.00178075 5.10097418-.00003873 10.20193535.00422444 15.30290797.00089279 1.08771199.00089279 1.08771199.00180361 2.19739797.00121172 1.47301654.00242585 2.94603309.00364237 4.41904963.01088676 13.82723406.00870806 27.65444376.00261516 41.4816792-.00516654 12.6508425.0060773 25.30160794.02509822 37.9524352.01937229 12.98394207.02763524 25.96784768.02387674 38.95180431-.00191344 7.29177342.00058909 14.5834813.01471454 21.87524295.01315129 6.85850043.01066191 13.71684415-.00241088 20.57534408-.00237195 2.5195216.0003909 5.03905397.00862312 7.55856323.01041687 3.43553806.00240689 6.87055328-.01031113 10.30607224.00737429 1.00058716.01474857 2.00117433.02234632 3.03208232-.05444351 6.97575772-1.12066228 11.29488875-6.14656812 16.43501973-3.66206578 2.46485197-5.8415868 3.26913728-10.25 3.1875-2.4375-1.9375-2.4375-1.9375-4-4 .5625-2.3125.5625-2.3125 2-5 3.5625-1.75 3.5625-1.75 7-3 1.55430955-1.55430955 1.12877562-3.02996616 1.13307858-5.19359493.00424104-.9099239.00848209-1.81984779.01285165-2.75734514-.00038613-1.01126043-.00077226-2.02252085-.0011701-3.06442553.00352685-1.06525046.00705369-2.13050092.01068741-3.2280317.01074534-3.599129.01437803-7.19823159.01813644-10.79737418.0063007-2.5682995.01306595-5.13659789.02026368-7.70489502.0149596-5.54501943.02649461-11.09003749.0359478-16.6350689.01385022-8.0194577.03503432-16.03888367.05842853-24.05831862.037945-13.01257672.0729049-26.02515918.10459828-39.03775262.00190049-.77946033.00380098-1.55892067.00575906-2.36200101.02683793-11.06430624.05070897-22.12861692.073385-33.19293237.0015973-.77915714.00319461-1.55831428.00484031-2.36108225.00159347-.77821231.00318693-1.55642463.00482868-2.35821913.02673844-12.96130694.06112554-25.92258008.10182507-38.88385065.02481804-8.00218085.0431206-16.00432528.05315561-24.00653857.00824331-6.12665921.02671769-12.25324753.04906057-18.37987065.00750536-2.51957983.01155835-5.03917253.01199532-7.5587635.0010744-3.42596308.01424864-6.85166686.03058434-10.27758599-.00261686-1.0090297-.00523371-2.0180594-.00792987-3.05766576.0068488-.91253165.01369759-1.82506329.02075392-2.76524741.00260438-1.1873318.00260438-1.1873318.00526137-2.39865011.41951269-3.17669051 1.68330365-3.86375049 4.75365835-4.17078596z" transform="translate(485.5 127.75)"/><path d="m0 0c2.33294775-.04241723 4.66702567-.04092937 7 0 1.86852613 1.86852613 1.13702437 5.02471858 1.14476013 7.51596069.00352685.68885808.00705369 1.37771616.01068741 2.08744872.01073779 2.32540011.01437673 4.65075933.01813644 6.97618043.00630136 1.66028519.01306669 3.32056868.02026368 4.98085022.01469873 3.58389814.02641171 7.16778963.0359478 10.75170517.01541168 5.66336789.03936028 11.32667921.06489753 16.99000931.0713122 16.10725334.13101743 32.2145392.18211365 48.3218689.02827464 8.88930898.06364078 17.77856182.10665375 26.66781199.0268253 5.63324892.04469801 11.26643429.05603725 16.89973461.00910766 3.50189296.02646083 7.00370857.04617893 10.50555635.00749153 1.62741127.01155753 3.25484235.01199532 4.88227081.00107824 2.21704609.01428699 4.43369613.03058434 6.65067482.0063479 1.86329988.0063479 1.86329988.01282405 3.76424217.03158954 3.18603644.03158954 3.18603644 2.25891972 6.00568581 3.11143567 1.03714522 5.49468096 1.20031861 8.76171875 1.31640625 1.11826172.04189453 2.23652344.08378906 3.38867187.12695313 1.1672461.0393164 2.33449219.07863281 3.53710938.11914062 1.17884766.04318359 2.35769531.08636719 3.57226562.13085938 2.91329321.10615238 5.82667195.20820304 8.74023438.30664062.66 1.65 1.32 3.3 2 5-1.30078125 1.97265625-1.30078125 1.97265625-4 4-3.73120003.60306153-7.41648648.51116189-11.1875.4375-1.00353516.00708984-2.00707031.01417969-3.04101562.02148438-6.62443193-.05602968-14.15619121-.30192948-19.39331055-4.87524415-4.08667855-4.69624158-4.50333602-8.35433903-4.50515747-14.38490295-.00155999-.69535604-.00311998-1.39071209-.00472725-2.10713953-.00399596-2.33535621-.00082578-4.67064767.00231636-7.00600439-.00135465-1.67205341-.00313494-3.34410652-.00531006-5.01615906-.00456639-4.54527364-.00278811-9.09052464.00037909-13.63579869.00252726-4.75032766.00018507-9.50065336-.00138617-14.25098109-.00182044-7.97701873.00058152-15.95402821.00534058-23.93104554.00544424-9.23233946.00367828-18.46465686-.00182641-27.69699579-.00453247-7.9176502-.00518108-15.83529375-.00256133-23.75294483.00156179-4.73290273.00175915-9.46579507-.00153649-14.19869715-.00288071-4.44784076-.00089932-8.89565294.00489426-13.3434906.00132644-1.63590764.00093543-3.27181767-.00126267-4.90772438-.00271598-2.22592526.00067514-4.45175786.00568009-6.67767715.00056554-1.87184763.00056554-1.87184763.0011425-3.78151036.12584114-2.89266872.12584114-2.89266872 1.12584114-4.89266872z" transform="translate(263 220)"/><path d="m0 0h127c1 6 1 6 0 8-2.95226162.98408721-4.85717519 1.12567371-7.9342041 1.12698364-1.52685173.00422974-1.52685173.00422974-3.08454895.00854492-1.1159404-.00202423-2.2318808-.00404846-3.38163757-.00613403-1.17580124.00175232-2.35160248.00350464-3.56303406.00531006-3.22514139.0036503-6.45024183.00279008-9.67538262-.00037909-3.37385711-.00253026-6.74771146-.00018419-10.12156868.00138617-5.66597993.00181974-11.33194684-.0005795-16.9979248-.00534058-6.552323-.00544224-13.10461488-.00367945-19.65693712.00182641-5.62384273.00453668-11.24767608.00517895-16.87152005.00256133-3.35968552-.00155971-6.71935641-.00176489-10.079041.00153649-3.74462508.00253073-7.48918985-.00132011-11.23381043-.00690079-1.11594039.00202423-2.23188079.00404846-3.38163757.00613403-1.01790115-.00281982-2.03580231-.00563964-3.08454895-.00854492-.88563377-.00037702-1.77126755-.00075405-2.68373871-.0011425-2.25046539-.12584114-2.25046539-.12584114-5.25046539-1.12584114-1.125-5.75-1.125-5.75 0-8z" transform="translate(324 395)"/><path d="m0 0c4.47870656 2.15937638 7.18198188 4.92952939 10 9 1.72237197 5.1671159 1.65561622 10.10599758-.125 15.25-2.61193874 3.83084349-5.67823629 6.65161815-9.875 8.75-5.55531248.5072965-10.41830236.76260422-15.5-1.6875-3.9391696-3.64373188-7.15383134-6.81752799-7.703125-12.36328125-.10566083-5.09813508.24187534-8.60605258 3.203125-12.94921875 6.28789552-6.18728919 11.36785423-6.81350065 20-6zm-12.5625 11.0625c-1.87375505 3.82897772-1.56712701 5.87084276-.4375 9.9375.98048938 2.06402685.98048938 2.06402685 3 3 4.39347757.65088557 6.30998011.47438867 10-2.0625 2.34001955-2.8446175 2.34001955-2.8446175 2-6.5625-1.00803326-4.01124054-1.00803326-4.01124054-4-6.375-5.77697756-.78183604-5.77697756-.78183604-10.5625 2.0625z" transform="translate(382 200)"/><path d="m0 0 2.5.3125c2 3 2 3 1.76342773 5.33325195-1.46506179 5.1176431-3.64160519 9.95288711-5.70092773 14.85424805-.45568359 1.10537109-.91136719 2.21074219-1.38085938 3.34960938-.44021484 1.05380859-.88042968 2.10761718-1.33398437 3.19335937-.40210693.96317139-.80421387 1.92634277-1.21850586 2.91870117-1.12915039 2.35083008-1.12915039 2.35083008-3.12915039 4.35083008-2.5.25-2.5.25-5 0-.66-.66-1.32-1.32-2-2 .15671963-6.81269448 3.19948913-12.67981646 5.9375-18.8125.45568359-1.04865234.91136719-2.09730469 1.38085938-3.17773438 4.33371418-9.84127482 4.33371418-9.84127482 8.18164062-10.32226562z" transform="translate(426.5 89.6875)"/><path d="m0 0c.78375.04125 1.5675.0825 2.375.125 3.42863264 6.52899195 6.58340677 13.11388691 9.375 19.9375.26248535.62592041.5249707 1.25184082.79541016 1.89672852 1.39778252 3.49070638 2.32800045 6.40075076 1.82958984 10.16577148-2 2-2 2-4.4375 2.4375-.845625-.144375-1.69125-.28875-2.5625-.4375-3.3876332-4.92271405-5.43032626-10.49926401-7.6875-16-.62358398-1.47726563-.62358398-1.47726563-1.25976562-2.984375-.39251954-.95390625-.78503907-1.9078125-1.18945313-2.890625-.35795654-.86367187-.71591309-1.72734375-1.0847168-2.6171875-.8346029-2.68831641-1.07155528-4.71121651-.77856445-7.5078125 2-2 2-2 4.625-2.125z" transform="translate(326.625 89.875)"/><path d="m0 0c.88316895.25338135 1.76633789.5067627 2.67626953.76782227 1.28938521 4.46325648 1.28938521 4.46325648.05859375 6.74609375-.80244141.83724609-.80244141.83724609-1.62109375 1.69140625-.639375.66902343-1.27875 1.33804687-1.9375 2.02734375-.825.83660156-1.65 1.67320312-2.5 2.53515625-1.12628535 1.20843872-2.25117559 2.41817856-3.375 3.62890625-1.22752992 1.29192172-2.45671192 2.58227562-3.6875 3.87109375-.58918213.63607177-1.17836426 1.27214355-1.78540039 1.92749023-4.35881312 4.46220342-4.35881312 4.46220342-8.52319336 5.04125977-2.62890625-.46875-2.62890625-.46875-3.62890625-1.46875-.46249556-3.76205571-.36520809-5.47690485 1.83251953-8.62475586 5.16770217-5.2483393 5.16770217-5.2483393 6.8100586-6.85498047 1.48039987-1.45577531 2.92281275-2.94297471 4.36523437-4.4362793 1.3921875-1.38541992 1.3921875-1.38541992 2.8125-2.79882812.84836426-.8468335 1.69672852-1.693667 2.57080078-2.56616211 2.60888672-1.71899414 2.60888672-1.71899414 5.93261719-1.48681641z" transform="translate(304.32373 283.232178)"/><path d="m0 0 2.9375.0625c1.74571632 3.7193956 3.47225715 7.44692658 5.17431641 11.18652344.77521707 1.70263524 1.55611379 3.40268128 2.33740234 5.10253906 2.40170019 5.43651332 4.28503213 9.73530591 3.48828125 15.7109375-1 1-1 1-3.875 1.375-1.03125-.12375-2.0625-.2475-3.125-.375-3.43293505-4.8739468-5.47682433-10.52143152-7.75-16-.42410156-.98484375-.84820312-1.9696875-1.28515625-2.984375-.39574219-.95390625-.79148437-1.9078125-1.19921875-2.890625-.36319336-.86367188-.72638672-1.72734375-1.10058594-2.6171875-.76920644-2.90061987-.52096139-4.65556625.33496094-7.5078125 1-1 1-1 4.0625-1.0625z" transform="translate(416.0625 305.9375)"/><path d="m0 0c6.91416898.73561531 10.63702057 5.97897831 15.3125 10.6875 1.39702148 1.34868164 1.39702148 1.34868164 2.82226562 2.72460938.87978516.87849609 1.75957032 1.75699218 2.66601563 2.66210937 1.20910034 1.20015747 1.20910034 1.20015747 2.44262695 2.42456055 2.1562297 3.0702673 2.1902551 4.8250201 1.7565918 8.5012207-1 1-1 1-3.75463867 1.32714844-4.12679248-.41600105-5.28906291-1.63504157-8.17114258-4.56152344-.87849609-.88429688-1.75699219-1.76859375-2.66210937-2.6796875-.8991211-.93585938-1.79824219-1.87171875-2.72460938-2.8359375-.91845703-.92039062-1.83691406-1.84078125-2.78320312-2.7890625-7.61613159-7.76811648-7.61613159-7.76811648-7.90429688-11.4609375 1.4375-2.25 1.4375-2.25 3-4z" transform="translate(447 283)"/><path d="m0 0c2.5.25 2.5.25 4.5 2.25-.22022675 6.58037535-2.91934058 12.31068968-5.4375 18.3125-.40798828 1.00095703-.81597656 2.00191406-1.23632812 3.03320312-3.05661363 7.38473863-3.05661363 7.38473863-5.32617188 9.65429688-3.0625.1875-3.0625.1875-6 0-1-1-1-1-1.19482422-3.70214844.2065584-3.49647982.9537813-5.84919544 2.31201172-9.06347656.44214844-1.05445313.88429688-2.10890625 1.33984375-3.1953125.46792969-1.08539063.93585938-2.17078125 1.41796875-3.2890625.46019531-1.10085938.92039062-2.20171875 1.39453125-3.3359375 4.35554893-10.27657052 4.35554893-10.27657052 8.23046875-10.6640625z" transform="translate(336.5 305.75)"/><path d="m0 0c4.16261223 1.06140682 6.60903218 3.22389295 9.609375 6.2109375.83660156.83273438 1.67320312 1.66546875 2.53515625 2.5234375.85980469.87140625 1.71960938 1.7428125 2.60546875 2.640625.87527344.86367187 1.75054687 1.72734375 2.65234375 2.6171875.83144531.8353125 1.66289062 1.670625 2.51953125 2.53125 1.13840332 1.143479 1.13840332 1.143479 2.29980469 2.31005859 1.79044066 2.18126998 2.6017944 3.3628993 2.77832031 6.16650391-.66.99-1.32 1.98-2 3-3.70613096.58950947-5.40767071.40963218-8.51708984-1.74072266-.80646973-.79970214-1.61293946-1.59940429-2.44384766-2.42333984-.88300781-.87527344-1.76601563-1.75054687-2.67578125-2.65234375-.90363281-.92683594-1.80726563-1.85367188-2.73828125-2.80859375-.92683594-.90363281-1.85367187-1.80726563-2.80859375-2.73828125-.87527344-.88300781-1.75054687-1.76601562-2.65234375-2.67578125-.79970215-.80646973-1.5994043-1.61293945-2.42333984-2.44384766-2.15035484-3.10941913-2.33023213-4.81095888-1.74072266-8.51708984.99-.66 1.98-1.32 3-2z" transform="translate(283 118)"/><path d="m0 0c1 1 1 1 1.32275391 3.75244141-.40831882 4.10851502-1.60695617 5.30426468-4.48681641 8.20849609-.87527344.88300781-1.75054687 1.76601562-2.65234375 2.67578125-.92683594.90363281-1.85367187 1.80726563-2.80859375 2.73828125-.90363281.92683594-1.80726563 1.85367188-2.73828125 2.80859375-.88300781.87527344-1.76601563 1.75054687-2.67578125 2.65234375-.80646973.79970215-1.61293945 1.5994043-2.44384766 2.42333984-3.0798079 2.12987685-4.84641898 2.17114903-8.51708984 1.74072266-1-1-1-1-1.32275391-3.75244141.40831882-4.10851502 1.60695617-5.30426468 4.48681641-8.20849609.87527344-.88300781 1.75054687-1.76601562 2.65234375-2.67578125 1.39025391-1.35544922 1.39025391-1.35544922 2.80859375-2.73828125.90363281-.92683594 1.80726563-1.85367188 2.73828125-2.80859375 1.32451172-1.31291016 1.32451172-1.31291016 2.67578125-2.65234375 1.20970459-1.19955322 1.20970459-1.19955322 2.44384766-2.42333984 3.0798079-2.12987685 4.84641898-2.17114903 8.51708984-1.74072266z" transform="translate(471 119)"/><path d="m0 0c2.6875.875 2.6875.875 5 2 .02465288 4.68139254.04283739 9.36274759.05493164 14.04418945.00503993 1.59375669.01187186 3.18750874.02050781 4.78125.01208054 2.28606308.0177921 4.57206522.0222168 6.8581543.00516129.71667343.01032257 1.43334686.01564026 2.17173767.00019612 1.7153053-.05137644 3.43048124-.11329651 5.14466858-1 1-1 1-4 1.125-3-.125-3-.125-4-1.125-.12559165-2.42487038-.1886098-4.81976873-.203125-7.24609375-.00570007-.72631119-.01140015-1.45262238-.01727295-2.20094299-.00946205-1.5392053-.01598875-3.07843096-.01983643-4.61766053-.00971149-2.35965134-.04072419-4.71843397-.07226562-7.07788085-.0065292-1.49283335-.01178-2.98567295-.015625-4.47851563-.0123468-.70837509-.0246936-1.41675018-.03741455-2.14659119.00909424-1.99183654.00909424-1.99183654.36553955-5.23231506.99-.66 1.98-1.32 3-2z" transform="translate(375 80)"/><path d="m0 0 2 2c-.375 3.125-.375 3.125-1 6-3.88916174 1.37388137-7.78720523 2.72058353-11.6875 4.0625-1.10279297.38994141-2.20558594.77988281-3.34179688 1.18164062-1.06669921.36416016-2.13339843.72832032-3.23242187 1.10351563-1.468927.5105896-1.468927.5105896-2.9675293 1.03149414-2.98721389.6693528-4.85026914.44361931-7.77075195-.37915039-.33-1.98-.66-3.96-1-6 3.84288153-3.53502638 8.49636292-4.68151828 13.375-6.1875.83789062-.27263672 1.67578125-.54527344 2.5390625-.82617188 4.43280942-1.39048031 8.38787704-2.54631365 13.0859375-1.98632812z" transform="translate(116 99)"/><path d="m0 0c3 .125 3 .125 4 1.125.10082764 2.43660446.13972603 4.84424701.1328125 7.28125.00095673.72868286.00191345 1.45736572.00289917 2.20812988.00068168 1.54341722-.00117179 3.08683729-.00534058 4.63024903-.00534847 2.37034509-.00005467 4.74050068.00634766 7.11083984-.00066078 1.49609417-.00194195 2.99218822-.00390625 4.48828125.00202423.71353638.00404846 1.42707275.00613403 2.16223145-.02399462 5.00406664-.02399462 5.00406664-1.13894653 6.11901855-3 .125-3 .125-6 0-1.70492881-1.70492881-1.1280442-3.84534261-1.13894653-6.11901855.00202423-.71353638.00404846-1.42707276.00613403-2.16223145-.00095673-.72868286-.00191345-1.45736572-.00289917-2.20812988-.00068168-1.54341722.00117179-3.08683729.00534058-4.63024903.00534847-2.37034509.00005467-4.74050068-.00634766-7.11083984.00066078-1.49609417.00194195-2.99218822.00390625-4.48828125-.00202423-.71353638-.00404846-1.42707275-.00613403-2.16223145.0291191-6.07277574.0291191-6.07277574 4.13894653-6.24401855z" transform="translate(376 313.875)"/><path d="m0 0h7c1.94660882 3.89321764 1.22842776 8.71790941 1.25 13 .020625 1.02351563.04125 2.04703125.0625 3.1015625.00515625.97710937.0103125 1.95421875.015625 2.9609375.01401855 1.34771484.01401855 1.34771484.02832031 2.72265625-.11762695.73089844-.2352539 1.46179688-.35644531 2.21484375-3 2-3 2-5.625 1.6875-2.375-.6875-2.375-.6875-3.375-1.6875-.0991918-1.61083745-.1307982-3.22595644-.1328125-4.83984375-.00128906-.98033203-.00257813-1.96066406-.00390625-2.97070313.00386719-1.03189453.00773437-2.06378906.01171875-3.12695312-.00386719-1.02802734-.00773437-2.05605469-.01171875-3.11523438.00128906-.98162109.00257813-1.96324218.00390625-2.97460937.00112793-.90484131.00225586-1.80968262.00341797-2.74194336.12939453-2.23071289.12939453-2.23071289 1.12939453-4.23071289z" transform="translate(482 90)"/></svg>