<svg height="512" width="512" xmlns="http://www.w3.org/2000/svg"><path d="m0 0c1.22814926-.01283524 2.45629852-.02567047 3.72166443-.03889465 1.34155372-.00816618 2.68311199-.01561014 4.02467346-.02238465 1.01441257-.00611329 1.01441257-.00611329 2.04931831-.01235008 3.57722606-.02083425 7.15441401-.03514922 10.73168755-.04453468 3.69349509-.01107937 7.38639018-.04550326 11.07967281-.0851717 2.84217799-.02613997 5.68421212-.03451756 8.52649975-.03810978 1.36157677-.0048702 2.72314694-.01649674 4.08460617-.035038 1.90500955-.02433814 3.81031163-.02101186 5.71547127-.01648521 1.08349228-.00586624 2.16698456-.01173248 3.28330994-.01777649 3.51577055.60925639 4.68803834 1.66626012 6.81459045 4.48774719.5 3.5.5 3.5 0 7-2.05824831 2.67204409-3.25097624 3.85205933-6.59353638 4.51225281-.97991912.00586624-1.95983825.01173248-2.9694519.01777649-1.6716069.0247364-1.6716069.0247364-3.37698364.04997253-1.79701859-.00286262-1.79701859-.00286262-3.63034058-.00578308-1.23257538.01416458-2.46515076.02832917-3.7350769.04292298-3.2708278.03484121-6.54118173.05320637-9.81216431.06278991-4.61630085.01740412-9.23238419.06448462-13.84848022.11006165-2.45724187.02255134-4.91455661.0383316-7.37188721.04684448-1.10810028.00703446-2.21620056.01406891-3.35787964.02131653-.97832794.00347946-1.95665588.00695892-2.96463013.01054382-2.36235037-.02247104-2.36235037-.02247104-4.33956909 1.13130188v478c2.50279594 1.25139797 4.1864959 1.12534761 6.9881897 1.12584114 1.06170095.00260775 2.12340191.0052155 3.21727562.00790227 1.17565836-.00223072 2.35131672-.00446144 3.56260109-.00675976 1.86254645.00233998 1.86254645.00233998 3.7627201.00472724 3.45771756.00330998 6.91538118.00210314 10.37309552-.00098622 3.72464787-.00225433 7.44929088.00122568 11.17393779.00397992 7.3009891.00445633 14.60196794.00348184 21.90295744.00058736 5.93147762-.00225457 11.86295234-.00256632 17.79443026-.00147618 1.26429209.00022985 1.26429209.00022985 2.55412543.00046434 1.71203347.00031971 3.42406694.00064393 5.13610041.00097259 16.06945831.00285439 32.13891092-.00043159 48.2083683-.00580036 13.80079293-.00446801 27.60157744-.00369206 41.40237022.00091876 16.01032588.00534648 32.02064677.00746131 48.03097343.00438773 1.70588239-.00031856 3.41176478-.00063293 5.11764717-.00094306 1.25912718-.00023141 1.25912718-.00023141 2.54369128-.0004675 5.92720992-.00086494 11.85441668.00059721 17.7816261.00294705 7.21918082.00279902 14.43835075.00205758 21.65753031-.00328074 3.68625281-.00263564 7.37248745-.0036444 11.05874014-.00035085 3.98852813.00350983 7.97702624-.00066915 11.96555328-.00568008 1.76348754.00334608 1.76348754.00334608 3.56260109.00675976 1.59255144-.00391162 1.59255144-.00391162 3.21727562-.00790227.92163626-.00016235 1.84327252-.0003247 2.79283715-.00049197 2.23962768.01730488 2.23962768.01730488 4.19535255-1.12534917 0-157.74 0-315.48 0-478-3.30051282-1.65025641-6.97583957-1.13493813-10.60360718-1.12457275-.90135166-.00141015-1.80270331-.0028203-2.73136866-.00427318-3.03858467-.0036676-6.0771231-.00031022-9.11570775.00286937-2.17111752-.00139406-4.34223477-.0032929-6.51335144-.00566101-4.68448989-.00450427-9.36897099-.00635324-14.05346299-.0064621-7.40276956-.00113766-14.80548895-.01395587-22.2082405-.0295639-1.24784189-.00257285-2.49568378-.00514571-3.78133905-.00779653-2.55204137-.00526673-5.10408271-.01055221-7.656124-.01585602-17.24119197-.03515365-34.48229319-.06165938-51.72351718-.05917216-11.62073665.00158632-23.24130287-.01439407-34.86198485-.05070662-6.15382351-.01849967-12.30736232-.02776793-18.46120775-.01552415-5.78670138.01140139-11.57289237-.00018437-17.35952568-.02963448-2.12688777-.00666361-4.25382193-.00473468-6.38069152.00629807-2.89804942.0137888-5.79435591-.00292614-8.69229699-.02743721-.84688396.01135538-1.69376793.02271075-2.56631505.03441024-3.95434415-.06529088-5.86744189-.2836233-8.84876406-2.97988677-1.96894755-3.66768788-1.54097457-5.73250559-.44249535-9.6870308 1.31517291-1.6871677 1.31517291-1.6871677 3-3 3.04466366-.29730829 5.88524423-.40873008 8.93145752-.38768005 1.38688605-.00807831 1.38688605-.00807831 2.80179-.01631981 3.11151214-.01435653 6.22260345-.00715682 9.33413529-.00005287 2.22551315-.00569966 4.45102336-.01266234 6.67652893-.02079773 6.05592625-.01799429 12.1117081-.01675087 18.16765309-.01105762 5.05217373.0030838 10.10431939-.00299179 15.15648913-.00903874 12.60172511-.0148701 25.20336299-.01121456 37.80508158.0008633 10.93974148.0099252 21.87931366-.00299391 32.81902903-.02693419 11.2335966-.02439797 22.46711642-.03359711 33.70074615-.02734727 6.30645316.00337348 12.61276654.0009288 18.91920018-.01625103 5.93274126-.01545496 11.86515938-.01152932 17.7978878.00730515 2.17723911.00369031 4.35450206.00056459 6.53171921-.00988579 2.97333677-.01318141 5.94559945-.00168695 8.91889.01599121.86080901-.00960501 1.72161803-.01921001 2.60851216-.02910608 5.75707502.07037909 9.08413688 1.23428888 13.83087993 4.53031152 5.29494925 5.58116272 6.29785497 10.63722114 6.25726891 18.15170002.00350607.82054532.00701215 1.64109063.01062446 2.48650095.00933558 2.76131711.00438512 5.52242432-.00046783 8.28375033.00373517 1.99501886.00833615 3.99003626.01373064 5.98505133.01226185 5.49163678.01196579 10.98321278.00961125 16.47486013-.00040736 5.9190121.01062325 11.83800451.02011514 17.75700748.01662834 11.59992502.02213626 23.19983127.02322476 34.79976706.00091879 9.42678026.00503395 18.85355393.01140125 28.28033205.00179506 2.71268691.00357469 5.42537383.00534975 8.13806075.00066315 1.01155041.00066315 1.01155041.00133969 2.04353619.01230988 18.97096088.02020097 37.94191948.01931344 56.91288453-.00004674 1.0730588-.00004674 1.0730588-.00009442 2.16779557-.00016621 3.62587202-.0003643 7.25174403-.00056941 10.87761605-.00003989.72012152-.00007978 1.44024304-.00012088 2.18218643-.00008088 1.45626151-.00016447 2.91252302-.00025078 4.36878453-.00122557 22.65809226.01378807 45.31612467.04114512 67.97419981.03071715 25.45155994.04793272 50.90308056.04607356 76.35466021-.00014926 2.71362998-.00024668 5.42725996-.00030863 8.14088994-.00002331.66817295-.00004662 1.3363459-.00007063 2.02476651-.00005775 10.08929012.01058366 20.17853319.02673536 30.26780933.01818369 11.47455489.02258225 22.94901168.00898115 34.42357472-.00654377 5.85614008-.00659592 11.71209181.0107065 17.56821414.01567328 5.35977637.01292586 10.71921414-.00456826 16.07898196-.00308257 1.94008921.00060953 3.88020332.01172015 5.82026316.01409914 2.63627175.00355236 5.27135222-.01311235 7.90758338.01490454 1.13108677.01490454 1.13108677.03011018 2.28502378-.07314894 5.46961391-1.52397148 9.65756565-4.52788812 14.24419966-4.49450316 4.269778-8.20691196 6.24738834-14.40493393 6.26006222-1.1037836.00706559-2.20756721.01413118-3.3447988.02141088-1.21243134-.00241508-2.42486268-.00483017-3.67403436-.00731843-1.28817572.00523667-2.57635144.01047335-3.90356278.01586872-3.57843589.01419384-7.15678498.01584303-10.73524499.01540309-3.85835111.001647-7.71666633.01471136-11.57499838.02619279-8.43804719.02285856-16.87606923.03077157-25.31414318.03582644-5.26860333.00325611-10.53719934.00977809-15.80579853.01700139-14.58678579.01956727-29.17356478.03597066-43.76036454.03887653-1.40041826.00028136-1.40041826.00028136-2.8291278.0005684-1.8926703.00036625-3.7853406.00072995-5.67801089.00109111-.93952721.00018281-1.87905441.00036562-2.84705213.00055397-.94067378.00018055-1.88134756.0003611-2.8505266.00054712-15.24247399.00354168-30.4848067.03056308-45.72723168.06795077-15.64858457.03807682-31.29709903.05744607-46.94573096.05774815-8.7863871.00058472-17.57260568.00908617-26.35894942.03799766-7.48179584.02450558-14.96336171.03180243-22.44518683.01675247-3.8167894-.00717244-7.63312465-.00629768-11.44986322.0164106-4.13991408.02439486-8.27879352.00996379-12.41873932-.00821304-1.20350845.01319997-2.4070169.02639993-3.64699531.0399999-6.98106586-.07010196-11.97710324-.88741391-17.28470635-5.65473074-4.40689729-5.64986831-5.14772147-9.93225286-5.13422108-16.90560436-.00235223-.81823762-.00470446-1.63647525-.00712797-2.47950795-.00670259-2.76545645-.00623139-5.53086605-.00582197-8.29632995-.00329784-1.99329173-.00702323-3.98658279-.01114148-5.979873-.01003718-5.49613977-.01373955-10.99226862-.01638931-16.48841625-.00389794-5.92040572-.0134766-11.84080275-.02221286-17.76120294-.01884341-13.6303043-.02902244-27.26061014-.03746068-40.89092407-.00420543-6.73430058-.00942756-13.46860026-.01468453-20.20290009-.01789073-23.04814109-.03288721-46.09628243-.04032019-69.14442943-.00047476-1.44717776-.00095065-2.89435553-.00142766-4.34153329-.00023638-.71767637-.00047276-1.43535274-.0007163-2.17477688-.00120121-3.6361588-.00241665-7.2723176-.00364199-10.9084764-.00024014-.72160913-.00048029-1.44321826-.00072772-2.18669434-.00789381-23.39893265-.03132705-46.79781462-.06382822-70.19672514-.03429201-24.73332138-.05400866-49.4666131-.05730235-74.19995865-.00041755-2.71478454-.00089711-5.42956905-.00142318-8.14435357-.0001232-.66846595-.00024639-1.3369319-.00037331-2.02565439-.00218831-10.09458001-.01549162-20.18910704-.03466469-30.28366797-.02166974-11.48191776-.02977577-22.96374296-.02003322-34.44567885.00455544-5.8601804.00258617-11.72016965-.01676144-17.58032403-.01755543-5.36355081-.01669595-10.72676995-.00110271-16.0903239.00238767-1.9414974-.00200717-3.8830173-.01382865-5.82448017-.01507021-2.63818874-.00548045-5.27519492.01022688-7.91335431-.0102222-.75462954-.02044441-1.50925908-.03097638-2.28675619.0785753-6.04254652 1.78785868-11.35243822 6.00864662-15.81603313 4.44558289-3.85381853 7.75564626-4.55692221 13.48582025-4.6090227z" transform="translate(103.968506 -.177002)"/><path d="m0 0c1.03774232-.00551503 1.03774232-.00551503 2.09644914-.01114148 2.32367238-.01103374 4.64730005-.01488014 6.97099471-.01868945 1.66394187-.00626488 3.32788235-.01291171 4.99182129-.01991272 5.46918768-.02103959 10.93837564-.03140216 16.40759277-.04136658 1.88287623-.00404757 3.76575231-.00816449 5.64862824-.01235008 8.84571874-.0190513 17.69142913-.03328256 26.53716444-.04161197 10.21038926-.00977318 20.42056176-.03609504 30.63087464-.07650089 7.89225082-.03016054 15.78443951-.04496792 23.67674684-.04828012 4.71359425-.00235054 9.42695692-.01131141 14.14048934-.03646118 4.43564706-.0232847 8.87091014-.0275124 13.30660248-.01723862 1.62575813.00049538 3.25153519-.00582556 4.87723541-.01955604 2.22460197-.01773372 4.44782805-.01060706 6.67243195.00253296 1.24328945-.00238836 2.4865789-.00477671 3.76754379-.00723744 4.44777043.62760428 6.79518404 1.98546259 10.50790787 4.49498463 1.81026414 2.74891963 2.81317209 5.44037329 3.8515625 8.55078125 3.37130728 9.90835433 8.00897383 17.0206366 17.1484375 22.44921875 3.98993704 1.87425387 8.08077379 3.38004377 12.2734375 4.734375 4.73730573 1.58497218 7.00766309 3.08431328 9.7265625 7.265625.50139666 2.82097721.50139666 2.82097721.50336456 5.97364807.01043099 1.20515983.02086198 2.41031965.03160906 3.65199948-.00864785 1.33385232-.01767446 2.66770223-.02703905 4.00154972.00460902 1.41968964.01096195 2.83937452.01890898 4.25904941.01671659 3.90132131.00843658 7.80225184-.00394488 11.70357466-.00903871 4.20729979.00491337 8.4145317.01591969 12.62181806.01780244 8.24210846.01393758 16.48407136.00234944 24.72618557-.00902728 6.69750516-.01026139 13.39496948-.00590474 20.09247899.00061293.9526032.00122587 1.9052064.00185737 2.88667637.00127888 1.93509168.00257573 3.87018336.00389037 5.80527502.01141085 18.15266023-.00171583 36.30523971-.02320147 54.4578867-.01787144 15.58159466-.01476747 31.16307013.00367505 46.74466264.02139779 18.08694262.02983858 36.17381443.01755094 54.26076793-.00127422 1.92804113-.0025317 3.85608227-.00377226 5.78412343-.00092565 1.42301314-.00092565 1.42301314-.00187 2.87477403-.00345618 6.69078676.0023812 13.38152867.01178821 20.07230848.01120925 8.15195351.00820261 16.30375291-.01312297 24.45568872-.01052494 4.16063792-.01460782 8.32101876-.00140339 12.48165488.01190009 3.8071792.00540129 7.61386249-.01591021 11.42099655-.00447626 1.37879484-.00217681 2.75763138.00750315 4.13639951.01213415 1.87158248-.00268449 3.74328199-.01888329 5.61483371-.00064941 1.04038138-.00129882 2.08076277-.0019679 3.15267086-.63337251 3.56350483-2.01476857 5.23839353-4.50139666 7.82097721-2.375 1.15234375-2.375 1.15234375-5 1.9375-11.52016608 3.87594373-21.17506908 8.33308652-27.26953125 19.359375-1.33729436 2.90498401-2.44126254 5.84017098-3.45703125 8.87109375-1.60661296 4.70508081-3.32109874 7.57135177-7.2734375 10.83203125-3.45032266 1.15010755-6.12639787 1.13464043-9.76751709 1.14717102-.69182821.00367669-1.38365643.00735338-2.09644914.01114148-2.32367238.01103374-4.64730005.01488014-6.97099471.01868945-1.66394187.00626488-3.32788235.01291171-4.99182129.01991272-5.46918768.02103959-10.93837564.03140216-16.40759277.04136658-1.88287623.00404757-3.76575231.00816449-5.64862823.01235008-8.84571875.0190513-17.69142914.03328257-26.53716445.04161197-10.21038926.00977318-20.42056176.03609504-30.63087464.0765009-7.89225082.03016053-15.78443951.04496791-23.67674684.04828011-4.71359425.00235054-9.42695692.01131142-14.14048934.03646118-4.43564706.0232847-8.87091014.0275124-13.30660248.01723862-1.62575813-.00049538-3.25153519.00582556-4.87723541.01955604-2.22460197.01773372-4.44782805.01060707-6.67243195-.00253296-1.24328945.00238836-2.4865789.00477671-3.76754379.00723744-4.44777043-.62760428-6.79518404-1.98546259-10.50790787-4.49498463-1.81026414-2.74891962-2.81317209-5.44037329-3.8515625-8.55078125-3.37130728-9.90835433-8.00897383-17.0206366-17.1484375-22.44921875-3.98993704-1.87425386-8.08077379-3.38004377-12.2734375-4.734375-4.73735817-1.58498972-7.00736544-3.08452297-9.7265625-7.265625-.50254732-2.81982654-.50254732-2.81982654-.50615787-5.97085476-.01104769-1.20454313-.02209538-2.40908625-.03347785-3.65013069.00824077-1.31982929.01648154-2.63965857.02497202-3.99948269-.00532518-1.4189778-.01239071-2.83794995-.02104705-4.25691134-.01865834-3.89938195-.01231154-7.79838493-.00184697-11.69778281.00698303-4.20528066-.0089991-8.41048276-.02199733-12.61574042-.02166045-8.23842648-.02150787-16.47671494-.01337446-24.71516054.00629578-6.69511431.00516685-13.39018831-.00127207-20.08530218-.00090166-.95231448-.00180331-1.90462896-.00273229-2.88580146-.00185117-1.93452595-.00371373-3.86905189-.00558756-5.80357782-.01658565-18.14791773-.00785282-36.29575775.00898558-54.44367081.01469704-16.60820327.00006985-33.21622563-.02877017-49.8244056-.02938287-17.04757411-.04036948-34.09506468-.03081779-51.14266301.00102256-1.92777821.00201717-3.85555643.00298351-5.78333467.00047639-.94853472.00095278-1.89706944.0014436-2.87434764.00216563-6.68732618-.00764788-13.3745734-.02221463-20.06188207-.01750366-8.14938573-.01743436-16.2985408.00535165-24.44791739.01116029-4.15879161.01426464-8.31717652-.0043007-12.47595079-.01677513-3.80670503-.01049501-7.61264775.01421679-11.41930312.00721304-2.03035972-.01017364-4.06076072-.02841134-6.09105134.1013353-9.84757905.1013353-9.84757905 2.98749644-13.52214771 3.2200682-2.68593552 5.88884465-3.63591812 9.92655849-4.73258114 9.4863969-2.82367542 17.17099629-7.11438093 22.75-15.5 1.91299797-3.60476487 3.42999289-7.31120233 4.734375-11.17578125 1.59490641-4.7049739 3.3180078-7.56743456 7.265625-10.82421875 3.45032266-1.15010755 6.12639787-1.13464043 9.76751709-1.14717102zm-.76751709 16.14717102c-2.64 5.28-5.28 10.56-8 16-8.19627986 12.46517562-18.36162461 17.54464985-32 23v328l16 7c3.3855578 2.31208826 6.10263322 4.2462527 9 7 .53625.49628906 1.0725.99257813 1.625 1.50390625 5.27655541 5.48267086 8.16151361 12.69642282 11.375 19.49609375l2 4h158c2.64-5.28 5.28-10.56 8-16 8.19627986-12.46517562 18.36162461-17.54464984 32-23 0-108.24 0-216.48 0-328-5.28-2.31-10.56-4.62-16-7-3.3855578-2.31208825-6.10263322-4.2462527-9-7-.804375-.74443359-.804375-.74443359-1.625-1.50390625-5.27655541-5.48267086-8.16151361-12.69642281-11.375-19.49609375-.99-1.98-.99-1.98-2-4-52.14 0-104.28 0-158 0z" transform="translate(177.767517 36.852829)"/><path d="m0 0c1.07121094.10634766 1.07121094.10634766 2.1640625.21484375 5.58301591 2.1404849 8.26488516 7.35059586 10.76171875 12.4609375.30366989.61441452.60733978 1.22882904.92021179 1.86186218.95676033 1.94125038 1.89928916 3.88901319 2.84150696 5.83735657.65075983 1.32662989 1.30244409 2.65280674 1.95507812 3.97851562 1.58818904 3.23116278 3.16370116 6.46831673 4.73242188 9.70898438 5.02509617-.72803777 9.01870784-2.23683552 13.5-4.5625.69561035-.350625 1.3912207-.70125 2.10791016-1.0625 3.47909393-1.77628961 6.87284034-3.63077912 10.19677734-5.68359375 11.14206176-6.87504918 11.14206176-6.87504918 18.07421875-6.21484375 4.61182527 1.13809316 7.15874598 3.31274191 10.05859375 6.9609375 3.21744654 10.787909-.80055125 23.88935447-5.44140625 33.76171875-5.79076609 10.49324435-13.10924749 18.76020399-23.49609375 24.80078125 2.45949201 7.94605112 4.85757834 12.21780186 11.52734375 17.15234375 16.18021804 12.09043149 16.18021804 12.09043149 18.16015625 20.91015625-.82554866 3.52734429-2.354509 5.40347796-4.7890625 8.03125-1.1783321 1.99443292-1.1783321 1.99443292-.2734375 4.6953125 1.48734534 3.47328939 3.17303827 6.78382762 5 10.0859375 3.94275677 7.26629853 7.70198568 14.60523814 11.33544922 22.03076172 1.09336774 2.20265582 2.22330336 4.38421095 3.35595703 6.56689453.74955079 1.48785189 1.49827101 2.97612255 2.24609375 4.46484375.53850586 1.01006104.53850586 1.01006104 1.08789062 2.04052734 2.53562316 5.14842846 2.83961126 9.44787976 1.34960938 15.02197266-1.82120296 2.81992717-3.00690956 4.50345478-6 6-1.45915885.10956812-2.92307426.1590127-4.38623047.17700195-1.36183914.01925286-1.36183914.01925286-2.75119018.03889466-.98332306.00738693-1.96664612.01477386-2.97976685.02238464-1.00870148.00807175-2.01740295.01614349-3.05667114.02445984-2.13685382.01384483-4.2737298.0245652-6.41061402.03242493-3.27044429.01722819-6.53988187.06111295-9.81005859.1052246-2.0742113.01012539-4.14843121.01864197-6.22265625.02539063-.9792746.01750809-1.95854919.03501617-2.96749878.05305481-6.7522872-.02160833-6.7522872-.02160833-10.03689575-2.28669739-2.0175916-3.20863531-1.84218955-5.48196599-1.37841797-9.19213867 1.03051758-2.19433594 1.03051758-2.19433594 3-4 2.7822628-.35554853 5.17334586-.4673508 7.94921875-.390625.68501587.00402832 1.37003174.00805664 2.07580566.01220703 2.55443171.02089977 5.10848104.07674591 7.66247559.12841797l17.3125.25c-6.6-13.2-13.2-26.4-20-40-3.64874764 0-4.34826062.81070698-7.1875 3-19.26754148 13.8144637-42.06237819 20.34694297-65.69140625 17.5390625-17.96246106-3.23819552-33.44098182-10.8575687-48.12109375-21.5390625-5.41120836 10.16508988-10.72337973 20.3704341-15.85546875 30.6796875-.49898804 1.00023193-.99797607 2.00046387-1.51208496 3.03100586-1.21174867 2.4293056-2.42255175 4.85907723-3.63244629 7.28930664 1.88801079-.00999275 1.88801079-.00999275 3.81416321-.02018738 11.84553525-.06074091 23.69103903-.10575149 35.53669452-.13524914 6.0903887-.01567468 12.18065195-.03694597 18.27096844-.07088184 5.87439906-.03252895 11.74867726-.05052106 17.62315941-.05831337 2.24436471-.00555513 4.4887226-.01640253 6.73303604-.03255844 3.1367862-.02168813 6.27306907-.02478034 9.40991783-.023386.93363877-.01078583 1.86727753-.02157166 2.82920838-.03268433.85395355.00412399 1.7079071.00824799 2.58773803.01249695.74204336-.00276538 1.48408671-.00553076 2.24861622-.00837994 2.53539146.48082417 3.38907215 1.34080073 4.94649792 3.36914349 1.08153536 3.89352728 1.48400637 6.01795105-.32435608 9.68711853-4.14042953 3.57907219-8.11692665 3.00396668-13.42344665 2.94398499-1.09470612.0071553-2.18941224.0143106-3.31729126.02168273-3.62325614.016926-7.24528174-.00254127-10.86849976-.02388-2.51579389.00082839-5.03158773.00328663-7.54737854.00730896-5.27511398.00286076-10.54990816-.01134144-15.82493591-.03929138-6.09294961-.03203547-12.18525901-.03204268-18.27825398-.01478523-5.8669615.0158832-11.73368729.00902147-17.60063892-.00793702-2.49388479-.00518584-4.98778801-.00469516-7.48167038.00154496-3.48584767.00544716-6.97060749-.01490973-10.45633125-.04229927-1.0323729.00652587-2.06474579.01305175-3.12840271.01977539-4.42115717-.0591-7.01224798-.10170324-10.84268189-2.44984436-3.31880132-3.6622676-3.8712054-6.02125296-4.03111267-10.9783783.93687277-6.66832974 4.76027841-12.34695023 8.01660156-18.11914062 2.13486774-3.86345229 4.06751821-7.82805727 6.0144043-11.78857422 1.83175665-3.71780098 3.71308263-7.39851574 5.66821289-11.05322266.42482666-.80848389.84965332-1.61696777 1.28735352-2.44995117.82606894-1.57024932 1.66590498-3.13335263 2.52099609-4.68798828 2.30152486-4.24668652 2.30152486-4.24668652 1.96118164-8.92456055-1.30362844-2.13810298-1.30362844-2.13810298-2.96875-4.0390625-1.91608905-2.87413357-1.71292748-4.64984968-1.375-8.0625 4.63557284-7.98947568 12.09288151-13.94994796 19.1796875-19.6875 3.59213183-2.94534909 5.96825158-5.19429083 8.0078125-9.375.34417969-.69222656.68835938-1.38445312 1.04296875-2.09765625.8981535-1.81497981.8981535-1.81497981.76953125-3.83984375-1.62416727-1.24499587-3.30188398-2.42042469-5-3.5625-13.02974441-9.33798349-21.16780821-22.59492715-24-38.4375-.85497411-5.74435729-1.61409655-10.94097038.0625-16.5625 2.86774253-3.60780512 5.40148893-6.0161223 10.09594727-6.79614258 7.45589078-.30464605 12.02497972 2.1172059 18.21655273 6.04614258 1.83553194 1.10786653 3.67406144 2.21078256 5.515625 3.30859375.87591797.5244873 1.75183594 1.04897461 2.65429688 1.58935547 5.30489182 3.05653771 11.24194995 6.41455078 17.45507812 6.41455078.41773682-.8878418.83547363-1.77568359 1.26586914-2.69042969 1.56532919-3.31258429 3.15770828-6.61155558 4.75830078-9.90722656.68706063-1.42420091 1.36687808-2.85192096 2.0390625-4.28320313.97146979-2.06518225 1.9688898-4.11601313 2.97192383-6.16601562.29197769-.63556824.58395538-1.27113647.88478088-1.92596436 2.87050978-5.74825187 7.92680215-9.9893207 14.70506287-9.08966064zm-2.625 22.0625c-3.65544105 7.26460139-7.30659163 14.53133576-10.95223999 21.80085564-1.69284017 3.37523011-3.38716495 6.7496978-5.08486939 10.1224842-1.63742251 3.25316093-3.27096215 6.50824393-4.90179443 9.76471329-.6237921 1.24388047-1.24899513 2.48705439-1.87561035 3.72951508-.87542373 1.7363919-1.74543328 3.47551026-2.61517334 5.21475601-.74612549 1.48558914-.74612549 1.48558914-1.50732422 3.00119018-1.19957023 2.23817509-1.19957023 2.23817509-1.06298828 4.3664856 1.258125-.28875 2.51625-.5775 3.8125-.875 1.72909974-.37530847 3.45827018-.75029134 5.1875-1.125.80824219-.19078125 1.61648437-.3815625 2.44921875-.578125 13.88547364-2.9769775 26.90175607-1.56914126 40.55078125 1.578125 1.99741889.34846647 3.99673363.68689463 6 1-1.2599191-4.00439654-2.72983243-7.70500629-4.61376953-11.45458984-.52038849-1.04062592-1.04077698-2.08125183-1.57693482-3.15341187-.83759353-1.65970322-.83759353-1.65970322-1.69210815-3.35293579-.57426727-1.14570465-1.14853455-2.2914093-1.74020386-3.47183228-1.51876654-3.02993637-3.04232446-6.05743807-4.56692505-9.08444213-1.55810158-3.09565902-3.11161519-6.19361838-4.66552734-9.29138184-3.04397092-6.06592199-6.09250148-12.12953538-9.14453125-18.19140625-.66 0-1.32 0-2 0zm-62 13c1.33680144 10.6252666 5.9740649 20.71229949 14 28 2.58328437 1.83918616 5.24022843 3.44420695 8 5 1.36645701-2.59836136 2.71830669-5.20265556 4.0625-7.8125.38994141-.73798828.77988281-1.47597656 1.18164062-2.23632812.36416016-.71220704.72832032-1.42441407 1.10351563-2.15820313.34039307-.65460205.68078613-1.3092041 1.03149414-1.98364258.89272678-2.00538729.89272678-2.00538729-.37915039-4.80932617-2.40992611-1.2109579-4.75345721-2.25201217-7.25-3.25-7.53626377-3.13925893-14.6379864-6.7434033-21.75-10.75zm119.96484375 3.046875c-.81017578.433125-1.62035156.86625-2.45507813 1.3125-.84884765.45890625-1.69769531.9178125-2.57226562 1.390625-6.21249096 3.35230885-12.44161565 6.48045968-18.9375 9.25 1.34849837 4.35970831 3.04907846 8.31341438 5.125 12.375.80824219 1.58941406.80824219 1.58941406 1.6328125 3.2109375.40992188.79664063.81984375 1.59328125 1.2421875 2.4140625 10.7456358-6.21346288 16.72109485-14.398617 21-26 .8448457-3.43785663.8448457-3.43785663 1-6-2.54460222 0-3.79711571.83760517-6.03515625 2.046875zm-80.96484375 64.953125c-4.79539501 7.19309251-5.80528747 14.53297747-5 23 2.16284453 8.13021077 7.52381597 14.30418381 14.0625 19.375 7.23759668 4.00377689 14.50981232 4.95993939 22.58984375 2.97265625 8.38592478-3.01066329 15.0795517-8.46807861 19.34765625-16.34765625 2.94867558-7.66655651 3.18901574-15.62671371-.09375-23.1953125-4.30263804-8.56818438-10.32143055-13.86308242-19.296875-17.11328125-12.94075068-3.42891148-22.9979243 1.73687337-31.609375 11.30859375zm67 3c.165.86625.33 1.7325.5 2.625 1.18659269 8.3061488 1.07033126 17.1307609-.5 25.375 6.61519148-3.30759574 11.63820705-7.95106821 17-13-1.5576019-4.15038022-4.59240988-6.47881228-7.9375-9.1875-.53818359-.45052734-1.07636719-.90105469-1.63085938-1.36523438-2.46682503-2.02881911-4.37484469-3.42833364-7.43164062-4.44726562zm-103 13c1.5576019 4.15038022 4.59240988 6.47881228 7.9375 9.1875.53818359.45052734 1.07636719.90105469 1.63085938 1.36523438 2.46682503 2.02881911 4.37484469 3.42833364 7.43164062 4.44726562-.2475-1.299375-.2475-1.299375-.5-2.625-1.18659269-8.3061488-1.07033126-17.1307609.5-25.375-4.93831609 0-13.30077154 9.77301347-17 13z" transform="translate(257.625 155.9375)"/><path d="m0 0c1.8253125-.01933594 1.8253125-.01933594 3.6875-.0390625 3.3125.6640625 3.3125.6640625 5.72265625 3.01171875 1.93492704 3.22804782 2.14168319 4.94713606 1.58984375 8.65234375-1.77984405 3.1359157-2.52308207 3.84102736-6 5-4.6834167.41277571-8.73180842.56939214-13.0625-1.375-2.55027643-2.13894152-2.88128776-3.11908981-3.25-6.4375.69829681-7.12262742 4.64658439-8.88311351 11.3125-8.8125z" transform="translate(256 421.375)"/><path d="m0 0c3.25 2.125 3.25 2.125 5 5 .57210224 3.50412619.44040698 5.22404484-1.3125 8.3125-2.82901927 2.82901927-5.74718387 2.86791977-9.5625 2.9375-4.1821943-.03663236-6.82234532-.48003156-10.125-3.25-1.44430855-2.88861709-1.37688506-4.79647701-1-8 3.93184599-6.45946127 10.17417382-6.16906415 17-5z" transform="translate(262 74)"/><path d="m0 0c2.19921875 1.578125 2.19921875 1.578125 4 4 .49609375 3.34765625.49609375 3.34765625.4375 7.0625-.00128906 1.22847656-.00257813 2.45695312-.00390625 3.72265625-.43359375 3.21484375-.43359375 3.21484375-1.75 5.08984375-2.86069934 1.9115578-5.28905106 2.0664734-8.68359375 2.125-2.80189446-1.76641172-4.51524911-3.03049822-6-6-.43008598-4.6730496-.56413789-8.74351106 1.375-13.0625 3.06628531-3.65595556 6.03645904-3.33306388 10.625-2.9375z" transform="translate(305 419)"/><path d="m0 0c3.1850357 1.76015131 3.83296972 2.49890916 5 6 .49750627 4.81194594.67272046 8.73218067-1.625 13.0625-2.93214157 2.39201022-4.59517572 2.9375-8.375 2.9375-2.32731556-1.13779872-4.16840714-2.16840714-6-4-.17883149-2.26617608-.26802736-4.53971385-.3125-6.8125-.03738281-1.24394531-.07476562-2.48789062-.11328125-3.76953125.42578125-3.41796875.42578125-3.41796875 2.2265625-5.83984375 3.18257098-2.28376319 5.37641827-2.05597506 9.19921875-1.578125z" transform="translate(214 419)"/><path d="m0 0c3.11890025 2.25161248 3.91199316 3.48531169 4.56640625 7.3125-.00128906 1.216875-.00257813 2.43375-.00390625 3.6875.02191406 1.216875.04382813 2.43375.06640625 3.6875-.62890625 3.3125-.62890625 3.3125-2.94140625 5.74609375-2.6875 1.56640625-2.6875 1.56640625-6.25 1.62890625-3.4375-1.0625-3.4375-1.0625-5.875-3-2.23362668-4.37790829-2.2358204-8.23835735-1.5625-13.0625 2.72555273-6.07054927 5.51419752-6.5591209 12-6z" transform="translate(305 71)"/><path d="m0 0c2.36497439 1.86708505 3.66030715 3.32061431 5 6 .51507805 4.77080489.64267091 8.74036502-1.5625 13.0625-3.24627201 2.58037006-5.30373523 3.01002219-9.4375 2.9375-2.6875-1.56640625-2.6875-1.56640625-5-4-.62890625-3.3125-.62890625-3.3125-.5625-7-.00128906-1.216875-.00257813-2.43375-.00390625-3.6875 1.16385641-6.80655335 5.08727589-8.23809005 11.56640625-7.3125z" transform="translate(214 71)"/><path d="m0 0c3.55247432.87379409 4.94828114 2.4927342 6.9375 5.4765625.69847125 2.8396864.69847125 5.1603136 0 8-1.98921886 2.9838283-3.38502568 4.60276841-6.9375 5.4765625-3.92313492.28234683-5.73362371-.25731164-9.0625-2.4765625-2.21925086-3.32887629-2.75890933-5.13936508-2.4765625-9.0625 1.46386379-5.95144621 5.94770695-7.81647066 11.5390625-7.4140625z" transform="translate(258.0625 266.523438)"/></svg>