<svg width="60" height="60" viewBox="0 0 60 60" fill="none" xmlns="http://www.w3.org/2000/svg">
<g clip-path="url(#clip0_72_281)">
<rect width="60" height="60" rx="12" fill="#A378FD"/>
<g filter="url(#filter0_i_72_281)">
<path d="M-2 3.82759C-2 0.0568142 1.0105 -3 4.72414 -3H56.2759C59.9895 -3 63 0.0568149 63 3.82759V56.1724C63 59.9432 59.9895 63 56.2759 63H4.72414C1.0105 63 -2 59.9432 -2 56.1724V3.82759Z" fill="#905CFB"/>
</g>
<path d="M30.0362 -0.294411C30.327 -1.2352 31.673 -1.2352 31.9638 -0.294409L35.0533 9.70048C35.2721 10.4081 36.166 10.6418 36.7095 10.1336L44.2645 3.06814C44.9838 2.39545 46.1498 3.0444 45.9423 4.00194L43.7038 14.3336C43.5493 15.0467 44.1952 15.6773 44.9137 15.5149L54.9946 13.2364C55.9504 13.0203 56.6236 14.1447 55.9731 14.8703L48.9215 22.7362C48.4397 23.2736 48.6729 24.1236 49.3632 24.3462L59.3044 27.5518C60.2319 27.8509 60.2319 29.1491 59.3044 29.4482L49.3632 32.6538C48.6729 32.8764 48.4397 33.7264 48.9215 34.2638L55.9731 42.1297C56.6236 42.8553 55.9504 43.9797 54.9946 43.7636L44.9137 41.4851C44.1952 41.3227 43.5493 41.9533 43.7038 42.6664L45.9423 52.9981C46.1498 53.9556 44.9838 54.6045 44.2645 53.9319L36.7095 46.8664C36.166 46.3582 35.2721 46.5919 35.0533 47.2995L31.9638 57.2944C31.673 58.2352 30.327 58.2352 30.0362 57.2944L26.9467 47.2995C26.7279 46.5919 25.834 46.3582 25.2905 46.8664L17.7355 53.9319C17.0162 54.6045 15.8502 53.9556 16.0577 52.9981L18.2962 42.6664C18.4507 41.9533 17.8048 41.3227 17.0863 41.4851L7.00536 43.7636C6.04964 43.9797 5.37635 42.8553 6.02689 42.1297L13.0785 34.2638C13.5603 33.7264 13.3271 32.8764 12.6368 32.6538L2.69559 29.4482C1.76814 29.1491 1.76814 27.8509 2.69559 27.5518L12.6368 24.3462C13.3271 24.1236 13.5603 23.2736 13.0785 22.7362L6.02689 14.8703C5.37635 14.1447 6.04964 13.0203 7.00536 13.2364L17.0863 15.5149C17.8048 15.6773 18.4507 15.0467 18.2962 14.3336L16.0577 4.00194C15.8502 3.04439 17.0162 2.39545 17.7355 3.06814L25.2905 10.1336C25.834 10.6418 26.7279 10.4081 26.9467 9.70048L30.0362 -0.294411Z" fill="#FDC33E"/>
<path d="M1.66446 15.7227L1.98849 20.9774C5.12076 36.254 10.0375 31.377 15.1499 31.2469L13.5075 36.3959C9.84548 39.3073 -0.850098 37.745 -0.850098 28.5187L-0.849764 17.9034C-0.208524 17.102 0.724432 16.365 1.66446 15.7227Z" fill="#FDC33E"/>
<path d="M-0.991769 24.7369C0.274243 25.533 4.00508 25.6341 5.60494 25.05C7.2048 24.466 6.7827 22.4904 5.75521 21.8848C4.72773 21.2792 0.504695 21.1147 -0.841499 21.5716C-2.18769 22.0285 -2.25778 23.9407 -0.991769 24.7369Z" fill="#FDC33E"/>
<path d="M-0.523298 21.3848C0.658118 22.0939 4.09957 22.121 5.56413 21.5563C7.02869 20.9916 6.60425 19.1841 5.64615 18.6458C4.68805 18.1076 0.791685 18.0308 -0.44128 18.4743C-1.67424 18.9178 -1.70471 20.6757 -0.523298 21.3848Z" fill="#FDC33E"/>
<path d="M-0.0444431 18.4264C1.04283 19.0836 4.12413 18.9617 5.41113 18.3341C6.69814 17.7065 6.40467 16.0108 5.36189 15.4229C4.31911 14.835 0.991147 15.0187 -0.0936867 15.5152C-1.17852 16.0116 -1.13171 17.7692 -0.0444431 18.4264Z" fill="#FDC33E"/>
<path d="M58.4854 16.7227L58.1614 21.9774C55.0291 37.254 50.1124 32.377 45 32.2469L46.6424 37.3959C50.3044 40.3073 61 38.745 61 29.5187L60.9997 18.9034C60.3584 18.102 59.4255 17.365 58.4854 16.7227Z" fill="#FDC33E"/>
<path d="M61.1417 25.7369C59.8757 26.533 56.1448 26.6341 54.545 26.05C52.9451 25.466 53.3672 23.4904 54.3947 22.8848C55.4222 22.2792 59.6452 22.1147 60.9914 22.5716C62.3376 23.0285 62.4077 24.9407 61.1417 25.7369Z" fill="#FDC33E"/>
<path d="M60.6727 22.3848C59.4913 23.0939 56.0498 23.121 54.5853 22.5563C53.1207 21.9916 53.5452 20.1841 54.5033 19.6458C55.4614 19.1076 59.3577 19.0308 60.5907 19.4743C61.8237 19.9178 61.8541 21.6757 60.6727 22.3848Z" fill="#FDC33E"/>
<path d="M60.1943 19.4264C59.1071 20.0836 56.0258 19.9617 54.7388 19.3341C53.4518 18.7065 53.7452 17.0108 54.788 16.4229C55.8308 15.835 59.1588 16.0187 60.2436 16.5152C61.3284 17.0116 61.2816 18.7692 60.1943 19.4264Z" fill="#FDC33E"/>
<path d="M28.2712 25.8752C28.2712 30.7769 24.6288 34.7504 20.1356 34.7504C15.6424 34.7504 12 30.7769 12 25.8752C12 20.9736 15.6424 17 20.1356 17C24.6288 17 28.2712 20.9736 28.2712 25.8752Z" fill="#FEFDF9"/>
<path d="M25.3129 26.6154C25.3129 30.2916 22.995 33.2718 20.1357 33.2718C17.2764 33.2718 14.9585 30.2916 14.9585 26.6154C14.9585 22.9392 17.2764 19.959 20.1357 19.959C22.995 19.959 25.3129 22.9392 25.3129 26.6154Z" fill="#4B4540"/>
<path d="M51.0212 25.8752C51.0212 30.7769 47.3788 34.7504 42.8856 34.7504C38.3924 34.7504 34.75 30.7769 34.75 25.8752C34.75 20.9736 38.3924 17 42.8856 17C47.3788 17 51.0212 20.9736 51.0212 25.8752Z" fill="#FEFDF9"/>
<path d="M48.0629 26.6154C48.0629 30.2916 45.745 33.2718 42.8857 33.2718C40.0264 33.2718 37.7085 30.2916 37.7085 26.6154C37.7085 22.9392 40.0264 19.959 42.8857 19.959C45.745 19.959 48.0629 22.9392 48.0629 26.6154Z" fill="#4B4540"/>
<path d="M17.3499 59.7903C14.4306 53.8387 7.29311 46.7546 23.1417 46.7546C24.6048 46.7546 23.6416 39.7545 23.6416 39.7545C1.29515 41.2559 4.80313 51.866 9.42569 57.149C6.12384 57.8093 7.78924 57.3997 5.38011 58.1311C2.97098 58.8626 3.87531 62.6283 6.12397 63.7526L15.3688 63.7525C17.0553 63.7525 17.9515 61.0168 17.3499 59.7903Z" fill="#FFC109"/>
<path d="M55.0207 60.9967C45.9393 51.9141 46.588 42.0892 37.5931 47.1485C36.3179 47.8657 32.5336 45.4623 32.5336 45.4623C47.7123 34.2189 51.2556 42.3386 55.0206 53.3325C54.7459 51.7664 54.6371 49.2259 56.1449 47.1488C57.6527 45.0716 61.2038 44.8998 61.2038 47.1485L61.2038 58.9539C61.2038 61.7647 57.0015 62.9777 55.0207 60.9967Z" fill="#FFC109"/>
<path d="M34 33C34 33.5523 32.8807 34 31.5 34C30.1193 34 29 33.5523 29 33C29 32.4477 30.1193 32 31.5 32C32.8807 32 34 32.4477 34 33Z" fill="#4B4540"/>
</g>
<defs>
<filter id="filter0_i_72_281" x="-2" y="-3" width="65" height="74" filterUnits="userSpaceOnUse" color-interpolation-filters="sRGB">
<feFlood flood-opacity="0" result="BackgroundImageFix"/>
<feBlend mode="normal" in="SourceGraphic" in2="BackgroundImageFix" result="shape"/>
<feColorMatrix in="SourceAlpha" type="matrix" values="0 0 0 0 0 0 0 0 0 0 0 0 0 0 0 0 0 0 127 0" result="hardAlpha"/>
<feOffset dy="26"/>
<feGaussianBlur stdDeviation="4"/>
<feComposite in2="hardAlpha" operator="arithmetic" k2="-1" k3="1"/>
<feColorMatrix type="matrix" values="0 0 0 0 0 0 0 0 0 0 0 0 0 0 0 0 0 0 0.25 0"/>
<feBlend mode="normal" in2="shape" result="effect1_innerShadow_72_281"/>
</filter>
<clipPath id="clip0_72_281">
<rect width="60" height="60" rx="12" fill="white"/>
</clipPath>
</defs>
</svg>
