<svg width="64" height="64" viewBox="0 0 64 64" fill="none" xmlns="http://www.w3.org/2000/svg">
<g clip-path="url(#clip0_324_4817)">
<rect width="64" height="64" rx="32" fill="white"/>
<path d="M63.7165 39.2852C67.7391 21.7677 56.7993 4.30594 39.2818 0.283345C21.7642 -3.73925 4.3025 7.20056 0.279897 24.7181C-3.7427 42.2356 7.19711 59.6974 24.7146 63.72C42.2322 67.7426 59.6939 56.8027 63.7165 39.2852Z" fill="#6995E1"/>
<mask id="mask0_324_4817" style="mask-type:luminance" maskUnits="userSpaceOnUse" x="-1" y="-1" width="66" height="66">
<path d="M63.717 39.2857C67.7396 21.7682 56.7998 4.30643 39.2822 0.283836C21.7647 -3.73876 4.30298 7.20105 0.280385 24.7186C-3.74221 42.2361 7.19759 59.6978 24.7151 63.7204C42.2327 67.743 59.6944 56.8032 63.717 39.2857Z" fill="white"/>
</mask>
<g mask="url(#mask0_324_4817)">
<path d="M32.5714 93.6801C47.1198 93.6801 58.9136 84.5398 58.9136 73.2646C58.9136 61.9894 47.1198 52.849 32.5714 52.849C18.023 52.849 6.22925 61.9894 6.22925 73.2646C6.22925 84.5398 18.023 93.6801 32.5714 93.6801Z" fill="#E06EA1"/>
<path d="M10.7534 39.8822C14.3883 49.4563 26.6192 53.6925 38.072 49.3442C49.5248 44.9959 56.4952 35.3766 52.8603 25.8031C49.2254 16.229 36.9945 11.9928 25.5417 16.341C14.0894 20.6888 7.11904 30.3081 10.7534 39.8822Z" fill="#2C3C52"/>
<path d="M39.208 49.3396L37.5939 55.2678C37.5939 55.2678 32.6248 57.7231 27.4411 55.2678L25.9348 51.4114L39.208 49.3396Z" fill="#D7AC8D"/>
<path d="M26.6604 53.2707L25.9338 51.4115L38.9434 50.0452L37.797 54.5355C33.9412 55.0395 30.1974 54.515 26.6604 53.2707Z" fill="#CC9771"/>
<path d="M12.1181 39.8383C15.9161 49.8417 27.6156 54.6787 38.2503 50.6408C48.8851 46.6029 55.0879 36.962 51.2899 26.9586C47.4919 16.9547 35.7918 12.1182 25.1576 16.1561C14.5235 20.194 8.32013 29.8349 12.1181 39.8383Z" fill="#D7AC8D"/>
<path d="M41.9225 11.8747C41.9225 11.8747 47.7717 24.5912 51.1404 27.4511C51.4092 27.6795 52.13 26.6567 52.3783 26.623C53.2032 26.511 53.7088 25.6639 53.4521 24.8727C47.4024 6.21589 31.5003 10.4589 29.0923 11.2213C28.8819 11.2881 28.662 11.2965 28.4447 11.2581C23.433 10.3679 10.274 12.9453 8.07909 18.5557C5.09923 26.1737 8.09856 30.532 10.264 36.2255C10.264 36.2255 19.7429 30.542 22.4944 16.8874" fill="#2C3C52"/>
<path d="M20.8665 21.712C28.5945 18.9889 35.0625 24.8497 42.8183 22.7664C50.5737 20.683 55.316 14.0651 52.3298 8.67301C49.5646 3.67974 44.9959 6.7864 44.9959 6.7864C46.0292 3.81653 42.2507 0.105369 38.7026 3.27779C38.7026 3.27779 37.7825 -0.985775 32.5998 0.678826C27.4171 2.3429 27.2587 10.0714 26.1455 9.93567C19.7775 9.15703 17.409 12.4099 17.409 12.4099C17.409 12.4099 6.75479 12.3594 6.97681 22.0256C7.19041 31.3377 16.4273 23.2762 20.8665 21.712Z" fill="#2C3C52"/>
<path d="M39.7656 23.7767C39.7656 23.7767 45.6433 25.2545 45.2329 27.2001C44.8225 29.1451 37.1219 27.2837 35.9808 26.0237C34.8397 24.7637 36.619 22.4683 39.7656 23.7767Z" fill="#2C3C52"/>
<path d="M21.5721 26.9753C21.5721 26.9753 16.4915 30.2792 17.5106 31.9864C18.5297 33.6937 25.2107 29.4353 25.8809 27.8733C26.5517 26.3113 24.1248 24.7172 21.5721 26.9753Z" fill="#2C3C52"/>
<path d="M34.9806 33.9173C35.774 36.4005 38.4303 37.77 40.9135 36.9761C43.3967 36.1822 44.7662 33.5264 43.9723 31.0432C43.1789 28.5599 40.5226 27.1905 38.0394 27.9844C35.5567 28.7777 34.1872 31.4341 34.9806 33.9173Z" fill="white"/>
<path d="M36.4655 31.8351C35.9852 34.9502 39.4901 36.7574 41.7487 34.5588C42.1417 34.1763 42.4032 33.6691 42.4868 33.1267C42.9672 30.0116 39.4622 28.205 37.2037 30.4036C36.8107 30.7861 36.5492 31.2932 36.4655 31.8351Z" fill="#2C3C52"/>
<path d="M38.0542 38.8111C38.4514 39.857 40.4601 40.3858 42.4088 39.646C44.358 38.9063 45.1924 37.4585 44.7952 36.4126C44.398 35.3667 42.8133 34.8374 40.8641 35.5771C38.9154 36.3174 37.657 37.7652 38.0542 38.8111Z" fill="#CC7871"/>
<path d="M28.8646 35.1573C29.1008 37.7536 27.1879 40.0496 24.5916 40.2858C21.9952 40.522 19.6993 38.6091 19.4631 36.0128C19.2269 33.4164 21.1398 31.1205 23.7361 30.8848C26.3325 30.648 28.6284 32.561 28.8646 35.1573Z" fill="white"/>
<path d="M26.6841 33.8181C28.3398 36.5001 25.8155 39.5295 22.8788 38.3841C22.368 38.1847 21.9297 37.8196 21.6414 37.353C19.9857 34.6714 22.51 31.6421 25.4467 32.7869C25.9576 32.9863 26.3964 33.3514 26.6841 33.8181Z" fill="#2C3C52"/>
<path d="M27.9404 40.86C27.9819 41.978 26.3379 43.2475 24.2545 43.3254C22.1711 43.4027 20.839 42.3947 20.7969 41.2767C20.7553 40.1587 22.009 39.0539 24.0924 38.9761C26.1758 38.8982 27.8988 39.7421 27.9404 40.86Z" fill="#CC7871"/>
<path d="M50.7217 28.0814C50.7217 28.0814 52.6141 24.9211 55.8049 26.1517C58.9958 27.3817 59.7523 33.0579 56.5194 34.4326C53.2865 35.8073 50.8427 32.6775 50.8427 32.6775L50.7217 28.0814Z" fill="#D7AC8D"/>
<path d="M52.8689 28.8975C52.8689 28.8975 54.1926 27.0982 55.9492 27.7753C57.7059 28.4524 58.1221 31.5769 56.3422 32.3335C54.563 33.09 53.2177 31.367 53.2177 31.367L52.8689 28.8975Z" fill="#CC9771"/>
<path d="M12.5685 35.6785C12.5685 35.6785 9.60072 33.4973 7.13433 35.8669C4.66847 38.2365 6.1684 43.7627 9.68121 43.779C13.194 43.7948 14.2357 39.9631 14.2357 39.9631L12.5685 35.6785Z" fill="#D7AC8D"/>
<path d="M11.4398 37.2961C11.4398 37.2961 9.81148 36.0992 8.45833 37.3992C7.10519 38.6998 7.92855 41.7317 9.85567 41.7407C11.7828 41.7496 12.3547 39.6468 12.3547 39.6468L11.4398 37.2961Z" fill="#CC9771"/>
<path d="M28.6008 36.6024C31.4187 35.2324 35.425 35.334 35.425 35.334C35.425 35.334 35.6154 36.363 35.376 37.481C33.1853 37.0948 30.8657 37.4026 29.0696 38.478C28.6329 37.5483 28.6008 36.6024 28.6008 36.6024Z" fill="#2C3C52"/>
<path d="M35.3758 37.4793C35.1322 38.6157 34.4446 39.8441 32.6569 40.1766C30.5798 40.5628 29.5644 39.5295 29.0693 38.4763C30.8655 37.4004 33.1845 37.0931 35.3758 37.4793Z" fill="#EA6868"/>
</g>
<path d="M54.8145 49.5269L52.6727 50.1335C52.1351 50.2855 51.7247 50.7848 51.62 51.413L51.2338 53.7294C51.1591 54.1772 50.5215 54.1929 50.4247 53.7494L49.9638 51.6361C49.8044 50.9032 49.292 50.3403 48.6512 50.1924L46.6404 49.7289C46.1969 49.6269 46.1811 49.0003 46.6194 48.8761L48.6059 48.3137C49.2383 48.1348 49.7213 47.5477 49.8444 46.8085L50.2 44.6736C50.2747 44.2258 50.9124 44.2101 51.0092 44.6536L51.5106 46.9542C51.6452 47.5729 52.0777 48.048 52.6191 48.1727L54.7935 48.6736C55.237 48.7767 55.2528 49.4027 54.8145 49.5269Z" fill="#E8CC31"/>
<path d="M6.59236 31.4186L5.0051 31.8679C4.60684 31.9805 4.30275 32.3504 4.22488 32.816L3.93868 34.5326C3.88344 34.8646 3.41047 34.8762 3.33892 34.5474L2.99748 32.9812C2.8791 32.4382 2.49978 32.021 2.02471 31.9116L0.534771 31.568C0.205954 31.4923 0.194381 31.0282 0.518988 30.9362L1.99103 30.5195C2.4598 30.3869 2.81755 29.9518 2.90856 29.4042L3.17214 27.8222C3.22738 27.4902 3.70035 27.4786 3.7719 27.8074L4.14334 29.512C4.2433 29.9708 4.5637 30.3227 4.96459 30.4153L6.57605 30.7868C6.90592 30.8625 6.9175 31.3271 6.59236 31.4186Z" fill="#E8CC31"/>
<path d="M59.4227 42.2128L58.6488 42.4311C58.2963 42.5306 58.0222 42.8757 57.9465 43.3155L57.8255 44.0158C57.7376 44.5245 57.0621 44.5282 56.969 44.0205L56.8637 43.4497C56.7685 42.9325 56.4418 42.5295 56.0251 42.4169L55.3517 42.2349C54.8956 42.1112 54.8919 41.4142 55.3465 41.2858L56.0183 41.0959C56.4329 40.9785 56.7554 40.5729 56.8448 40.0552L56.9437 39.4823C57.0316 38.9735 57.7071 38.9699 57.8002 39.4776L57.9296 40.1804C58.0101 40.6171 58.2858 40.957 58.6378 41.0522L59.4175 41.2632C59.8736 41.3873 59.8773 42.0839 59.4227 42.2128Z" fill="#E8CC31"/>
<path d="M13.2118 49.6654L12.4379 49.8838C12.0854 49.9832 11.8113 50.3283 11.7355 50.7681L11.6145 51.4684C11.5267 51.9771 10.8512 51.9808 10.758 51.4731L10.6528 50.9023C10.5576 50.3851 10.2309 49.9821 9.81419 49.8695L9.14078 49.6875C8.68464 49.5639 8.68096 48.8668 9.13552 48.7384L9.80736 48.5485C10.2219 48.4312 10.5444 48.0255 10.6339 47.5079L10.7328 46.9349C10.8206 46.4262 11.4962 46.4225 11.5893 46.9302L11.7187 47.6331C11.7992 48.0697 12.0749 48.4096 12.4268 48.5048L13.2065 48.7158C13.6627 48.84 13.6663 49.5371 13.2118 49.6654Z" fill="#E8CC31"/>
<path d="M59.0183 20.7514L58.0587 21.0223C57.6215 21.146 57.2822 21.5731 57.188 22.1192L57.0381 22.9873C56.9292 23.6181 56.0916 23.6229 55.9759 22.9931L55.8459 22.2855C55.7281 21.6442 55.3224 21.1449 54.8063 21.005L53.9719 20.7793C53.4063 20.6262 53.4016 19.7623 53.9656 19.6029L54.7984 19.3677C55.3124 19.2225 55.7123 18.7195 55.8233 18.0777L55.9459 17.3675C56.0548 16.7367 56.8923 16.7319 57.0081 17.3617L57.1685 18.2329C57.268 18.7743 57.6105 19.1957 58.0461 19.314L59.0125 19.5755C59.5776 19.7281 59.5823 20.592 59.0183 20.7514Z" fill="#E8CC31"/>
</g>
<defs>
<clipPath id="clip0_324_4817">
<rect width="64" height="64" rx="32" fill="white"/>
</clipPath>
</defs>
</svg>
