<svg width="264" height="233" viewBox="0 0 264 233" fill="none" xmlns="http://www.w3.org/2000/svg">
<path d="M36.8026 11.2227C36.8388 10.9985 37.1612 10.9985 37.1974 11.2227L40.3069 30.4779C40.4436 31.3242 41.1045 31.9893 41.9499 32.1314L60.826 35.3028C61.0485 35.3401 61.0485 35.6599 60.826 35.6972L41.9499 38.8686C41.1045 39.0107 40.4436 39.6758 40.3069 40.5221L37.1974 59.7773C37.1612 60.0015 36.8388 60.0015 36.8026 59.7773L33.6931 40.5221C33.5564 39.6758 32.8955 39.0107 32.0501 38.8686L13.174 35.6972C12.9515 35.6599 12.9515 35.3401 13.174 35.3028L32.0501 32.1314C32.8955 31.9893 33.5564 31.3242 33.6931 30.4779L36.8026 11.2227Z" fill="#FFC109"/>
<path d="M238.198 21.242C238.162 21.0172 237.838 21.0172 237.802 21.242L236.245 31.0332C236.111 31.8797 235.452 32.5464 234.606 32.6905L225.156 34.3028C224.934 34.3407 224.934 34.6593 225.156 34.6972L234.606 36.3094C235.452 36.4536 236.111 37.1203 236.245 37.9668L237.802 47.758C237.838 47.9828 238.162 47.9828 238.198 47.758L239.755 37.9668C239.889 37.1203 240.548 36.4536 241.394 36.3095L250.844 34.6972C251.066 34.6593 251.066 34.3407 250.844 34.3028L241.394 32.6905C240.548 32.5464 239.889 31.8797 239.755 31.0332L238.198 21.242Z" fill="#FFC109"/>
<path d="M205.803 188.198C205.839 187.975 206.161 187.975 206.197 188.198L206.615 190.736C206.755 191.582 207.418 192.245 208.264 192.385L210.802 192.803C211.025 192.839 211.025 193.161 210.802 193.197L208.264 193.615C207.418 193.755 206.755 194.418 206.615 195.264L206.197 197.802C206.161 198.025 205.839 198.025 205.803 197.802L205.385 195.264C205.245 194.418 204.582 193.755 203.736 193.615L201.198 193.197C200.975 193.161 200.975 192.839 201.198 192.803L203.736 192.385C204.582 192.245 205.245 191.582 205.385 190.736L205.803 188.198Z" fill="#FFC109"/>
<path d="M225.698 178.327C225.664 178.1 225.336 178.1 225.302 178.327L224.368 184.599C224.241 185.446 223.59 186.118 222.748 186.272L217.081 187.303C216.862 187.343 216.862 187.657 217.081 187.697L222.748 188.728C223.59 188.882 224.241 189.554 224.368 190.401L225.302 196.673C225.336 196.9 225.664 196.9 225.698 196.673L226.632 190.401C226.759 189.554 227.41 188.882 228.252 188.728L233.919 187.697C234.138 187.657 234.138 187.343 233.919 187.303L228.252 186.272C227.41 186.118 226.759 185.446 226.632 184.599L225.698 178.327Z" fill="#FFC109"/>
<path d="M23.8027 9.19807C23.8394 8.97474 24.1606 8.97474 24.1973 9.19807L25.0397 14.312C25.179 15.1579 25.8421 15.821 26.688 15.9603L31.8019 16.8027C32.0253 16.8394 32.0253 17.1606 31.8019 17.1973L26.688 18.0397C25.8421 18.179 25.179 18.8421 25.0397 19.688L24.1973 24.8019C24.1606 25.0253 23.8394 25.0253 23.8027 24.8019L22.9603 19.688C22.821 18.8421 22.1579 18.179 21.312 18.0397L16.1981 17.1973C15.9747 17.1606 15.9747 16.8394 16.1981 16.8027L21.312 15.9603C22.1579 15.821 22.821 15.1579 22.9603 14.312L23.8027 9.19807Z" fill="#FFC109"/>
<path d="M244.197 9.19807C244.161 8.97474 243.839 8.97474 243.803 9.19807L243.385 11.7362C243.245 12.5822 242.582 13.2452 241.736 13.3846L239.198 13.8027C238.975 13.8394 238.975 14.1606 239.198 14.1973L241.736 14.6154C242.582 14.7548 243.245 15.4178 243.385 16.2638L243.803 18.8019C243.839 19.0253 244.161 19.0253 244.197 18.8019L244.615 16.2638C244.755 15.4178 245.418 14.7548 246.264 14.6154L248.802 14.1973C249.025 14.1606 249.025 13.8394 248.802 13.8027L246.264 13.3846C245.418 13.2452 244.755 12.5822 244.615 11.7362L244.197 9.19807Z" fill="#FFC109"/>
<path d="M131.877 9.19531C132.577 7.60155 134.839 7.60157 135.539 9.19531L147.254 35.8584C147.77 37.0322 149.241 37.4238 150.272 36.6621L173.348 19.6182C174.74 18.5899 176.693 19.6968 176.526 21.4199L173.7 50.6914C173.579 51.9481 174.638 53.0021 175.894 52.874L204.279 49.9717C205.981 49.7977 207.102 51.7023 206.123 53.1055L189.38 77.1016C188.669 78.1208 189.05 79.5353 190.177 80.0596L205.623 87.2441C220.47 88.209 237.051 96.9981 240.99 119.684C246.706 121.421 250.989 125.97 251.542 128.194C252.094 130.419 250.614 131.764 248.705 131.712C246.797 131.659 243.997 129.656 241.556 126.989L241.674 127.196C243.583 130.554 244.842 132.769 245.393 135.172C245.954 137.624 243.278 139.734 241.072 138.992C238.866 138.25 235.903 134.675 233.964 129.933C233.95 129.975 232.586 134.029 230.364 135.77C228.131 137.519 223.529 135.427 223.519 132.531C223.509 129.635 226.15 122.717 226.15 122.717C225.93 106.554 213.134 102.172 200.538 103.177L190.177 107.996C189.05 108.52 188.669 109.935 189.38 110.954L206.123 134.95C207.102 136.353 205.981 138.258 204.279 138.084L175.894 135.183C174.638 135.054 173.579 136.108 173.7 137.364L176.526 166.637C176.693 168.36 174.74 169.466 173.348 168.438L158.119 157.189C161.679 168.016 160.067 181.664 149.447 191.028C154.168 195.786 160.184 199.151 160.447 204.028C160.711 208.906 158.704 211.876 152.947 211.528C147.19 211.181 138.465 202.786 132.947 193.528C131.151 190.514 133.218 185.394 136.947 183.028C151.984 172.352 149.085 163.046 145.871 155.344L135.539 178.86C134.839 180.454 132.577 180.454 131.877 178.86L120.162 152.197C119.646 151.024 118.175 150.632 117.144 151.394L94.0684 168.438C92.6759 169.466 90.7235 168.36 90.8897 166.637L93.0068 144.703C80.7654 153.218 70.5106 167.064 64.0234 179.578C62.5856 182.352 60.3536 183.258 56.8613 183.568C53.369 183.879 34.9983 184.112 33.9981 178.557C32.9978 173.002 35.1271 170.483 39.0469 168.185C42.9667 165.886 48.2961 168.88 54.8565 167.491C61.9657 151.675 68.9233 143.141 84.5205 135.897L63.1367 138.084C61.4346 138.258 60.314 136.353 61.293 134.95L65.9902 128.217C53.8538 131.949 39.0475 130.311 26.4619 116.312C20.6969 117.879 14.6518 116.302 13.001 114.712C11.3508 113.121 11.8899 111.195 13.5342 110.225C15.1785 109.254 18.6154 109.464 22.1006 110.425L21.8897 110.312C18.4881 108.483 16.2444 107.276 14.501 105.533C12.7219 103.754 13.8678 100.544 16.1309 100C18.394 99.4565 22.8036 100.911 26.9668 103.896C26.9604 103.87 25.9544 99.6996 26.9131 97.0391C27.8751 94.37 32.8861 93.6959 34.4336 96.1436C35.9811 98.5912 37.4209 105.855 37.4209 105.855C47.2235 121.015 62.5037 115.391 72.918 105.986L51.1065 95.8418C49.5648 95.1245 49.565 92.9323 51.1065 92.2148L77.2393 80.0596C78.3662 79.5353 78.7473 78.1209 78.0361 77.1016L61.293 53.1055C60.3142 51.7023 61.4347 49.7977 63.1367 49.9717L91.5225 52.874C92.7785 53.0022 93.8372 51.9482 93.7158 50.6914L90.8897 21.4199C90.7233 19.6968 92.6759 18.59 94.0684 19.6182L117.144 36.6621C118.175 37.4239 119.646 37.0322 120.162 35.8584L131.877 9.19531Z" fill="url(#paint0_radial_17_3535)"/>
<ellipse cx="117.292" cy="79.5088" rx="15.3277" ry="16.7647" fill="#FEFDF9"/>
<ellipse cx="117.447" cy="79.5283" rx="10" ry="12.5" fill="#4B4540"/>
<ellipse cx="151.781" cy="79.5088" rx="15.3277" ry="16.7647" fill="#FEFDF9"/>
<ellipse cx="151.947" cy="79.5283" rx="9.5" ry="12.5" fill="#4B4540"/>
<path d="M139.947 96.5283L140.131 97.4456C140.6 99.7937 139.285 102.133 137.034 102.951V102.951C136.007 103.325 134.879 103.339 133.842 102.993V102.993C131.382 102.173 129.981 99.5709 130.663 97.069L130.947 96.0283" stroke="#4B4540" stroke-width="2" stroke-linecap="round"/>
<ellipse cx="122" cy="223.5" rx="60" ry="7.5" fill="#3730FE" fill-opacity="0.1"/>
<defs>
<radialGradient id="paint0_radial_17_3535" cx="0" cy="0" r="1" gradientUnits="userSpaceOnUse" gradientTransform="translate(125.447 50.528) rotate(98.2708) scale(201.597 271.912)">
<stop stop-color="#FFD24C"/>
<stop offset="1" stop-color="#FFA509"/>
</radialGradient>
</defs>
</svg>
