<svg width="319" height="288" viewBox="0 0 319 288" fill="none" xmlns="http://www.w3.org/2000/svg">
<path d="M145.193 36.8107C145.916 35.2867 148.084 35.2867 148.807 36.8107L163.997 68.8427C164.524 69.9537 165.919 70.3307 166.934 69.6363L196.933 49.1063C198.34 48.1438 200.229 49.269 200.052 50.9642L196.432 85.6901C196.301 86.9462 197.353 88.0076 198.61 87.8886L235.151 84.4275C236.882 84.2636 237.983 86.2332 236.937 87.6218L215.711 115.808C214.931 116.843 215.327 118.335 216.517 118.847L249.738 133.163C251.349 133.858 251.349 136.142 249.738 136.837L216.517 151.153C215.327 151.665 214.931 153.157 215.711 154.192L236.937 182.378C237.983 183.767 236.882 185.736 235.151 185.572L198.61 182.111C197.353 181.992 196.301 183.054 196.432 184.31L200.052 219.036C200.229 220.731 198.34 221.856 196.933 220.894L166.934 200.364C165.919 199.669 164.524 200.046 163.997 201.157L148.807 233.189C148.084 234.713 145.916 234.713 145.193 233.189L130.003 201.157C129.476 200.046 128.081 199.669 127.066 200.364L97.0668 220.894C95.6603 221.856 93.7714 220.731 93.9481 219.036L97.5676 184.31C97.6985 183.054 96.647 181.992 95.3898 182.111L58.849 185.572C57.1185 185.736 56.0171 183.767 57.0628 182.378L78.289 154.192C79.0686 153.157 78.673 151.665 77.4829 151.153L44.2622 136.837C42.6508 136.142 42.6509 133.858 44.2622 133.163L77.4829 118.847C78.673 118.335 79.0686 116.843 78.289 115.808L57.0628 87.6218C56.0171 86.2332 57.1185 84.2636 58.849 84.4275L95.3898 87.8886C96.647 88.0076 97.6985 86.9462 97.5676 85.6901L93.9481 50.9642C93.7714 49.269 95.6603 48.1438 97.0668 49.1063L127.066 69.6363C128.081 70.3307 129.476 69.9537 130.003 68.8427L145.193 36.8107Z" fill="#FFC209"/>
<path d="M154.218 139.373L153.055 139.322C148.53 139.126 144.3 141.566 142.205 145.582C138.234 153.193 143.566 162.342 152.146 162.638L153.309 162.678C158.763 162.866 163.618 159.247 164.995 153.967C166.87 146.78 161.638 139.696 154.218 139.373Z" fill="#110902"/>
<ellipse cx="134.639" cy="121.5" rx="16" ry="17.5" fill="#FEFDF9"/>
<ellipse cx="140.139" cy="121.5" rx="7.5" ry="9.5" fill="#110902"/>
<ellipse cx="170.639" cy="121.5" rx="16" ry="17.5" fill="#FEFDF9"/>
<ellipse cx="176.139" cy="121.5" rx="7.5" ry="9.5" fill="#110902"/>
<mask id="mask0_8_2443" style="mask-type:alpha" maskUnits="userSpaceOnUse" x="140" y="139" width="26" height="24">
<path d="M153.948 139.373L152.786 139.322C148.261 139.126 144.03 141.566 141.935 145.582C137.964 153.193 143.297 162.342 151.877 162.638L153.04 162.678C158.493 162.866 163.348 159.247 164.726 153.967C166.6 146.78 161.368 139.696 153.948 139.373Z" fill="#110902"/>
</mask>
<g mask="url(#mask0_8_2443)">
<ellipse cx="145.369" cy="159" rx="7" ry="7" fill="#ED5F04"/>
</g>
<path d="M257.254 170.58C238.81 196.19 210.827 189.363 197.599 177.846L204.94 162.804C216.863 172.828 235.514 179.242 244.704 160.963C244.704 160.963 245.379 153.262 246.709 150.547C248.039 147.833 253.315 147.968 254.614 150.629C255.913 153.29 255.331 157.752 255.331 157.752C259.315 154.184 263.728 152.178 266.138 152.487C268.548 152.797 270.098 155.999 268.452 158.046C266.839 160.051 264.647 161.556 261.323 163.837L261.117 163.978C264.626 162.588 268.168 161.984 269.984 162.805C271.8 163.626 272.577 165.565 271.044 167.401C269.51 169.238 263.414 171.556 257.254 170.58Z" fill="#FFC209"/>
<path d="M69.0129 205.091C71.3416 173.617 98.7628 164.802 116.061 167.702L117.67 184.361C102.266 182.053 83.0138 186.339 84.7397 206.725C84.7397 206.725 88.1915 213.642 88.4773 216.651C88.7631 219.661 84.1956 222.305 81.6964 220.716C79.1973 219.127 77.3603 215.02 77.3603 215.02C75.8302 220.144 73.118 224.162 70.9022 225.158C68.6864 226.155 65.6902 224.236 66.0228 221.631C66.3487 219.078 67.4305 216.649 69.0708 212.966L69.1722 212.738C66.9087 215.758 64.2052 218.126 62.228 218.375C60.2507 218.625 58.5748 217.379 58.9213 215.011C59.2677 212.644 63.2521 207.481 69.0129 205.091Z" fill="#FFC209"/>
<rect x="259.242" y="99" width="41" height="61" rx="4" transform="rotate(19.7411 259.242 99)" fill="#FFF3CE"/>
<rect x="261.656" y="104.116" width="33" height="53" rx="2" transform="rotate(19.7411 261.656 104.116)" fill="#FEE066"/>
<path d="M268.154 127.332L274.075 120.546C274.382 120.195 274.959 120.416 274.952 120.882L274.823 129.674C274.819 129.928 275.006 130.144 275.257 130.177L282.552 131.142C282.997 131.201 283.145 131.771 282.785 132.038L276.226 136.918C276.061 137.041 275.988 137.254 276.043 137.453L278.131 144.991C278.25 145.418 277.795 145.776 277.407 145.562L270.954 141.991C270.758 141.882 270.513 141.917 270.356 142.077L264.044 148.49C263.738 148.801 263.208 148.598 263.188 148.162L262.791 139.408C262.78 139.166 262.598 138.967 262.357 138.935L255.112 137.977C254.657 137.917 254.517 137.327 254.896 137.068L261.804 132.353C261.98 132.233 262.061 132.013 262.004 131.807L259.916 124.271C259.798 123.846 260.248 123.487 260.636 123.698L267.538 127.442C267.744 127.554 268 127.508 268.154 127.332Z" fill="#F59A10"/>
<path d="M254.933 158.483C254.11 165.779 251.4 165.777 244.305 161.694C244.305 161.694 244.979 153.993 246.31 151.279C247.64 148.564 252.916 148.699 254.215 151.36C255.514 154.022 254.933 158.483 254.933 158.483Z" fill="#FFC209"/>
<path d="M178.943 250.113C178.943 250.113 168.471 201.49 158.737 180.646L167.674 180.292C177.421 195.555 185.957 216.543 191.685 232.825C197.823 229.466 201.313 227.296 206.281 228.442C211.25 229.588 213.206 233.763 211.193 239.437C209.179 245.111 197.16 251.665 186.279 254.522C182.736 255.452 180.237 254.537 178.943 250.113Z" fill="#FFC109"/>
<path d="M129.276 237.223C121.147 220.31 123.119 195.128 151.647 185.22C154.946 184.074 146.988 174.16 146.988 174.16C128.254 174.827 107.632 208.528 113.934 233.3C109.475 238.696 103.175 239.71 101.465 244.135C99.755 248.559 99.6505 252 104.076 255.89C108.501 259.78 123.362 247.658 126.015 245.136C128.667 242.614 130.689 240.162 129.276 237.223Z" fill="#FFC109"/>
</svg>
