<?xml version="1.0" encoding="utf-8"?>
<!-- Generator: Adobe Illustrator 24.1.1, SVG Export Plug-In . SVG Version: 6.00 Build 0)  -->
<svg version="1.1" id="Layer_1" xmlns="http://www.w3.org/2000/svg" xmlns:xlink="http://www.w3.org/1999/xlink" x="0px" y="0px"
	 viewBox="0 0 512 512" style="enable-background:new 0 0 512 512;" xml:space="preserve">
<g>
	<path d="M256,192v21.3c23.6,0,42.6,19.1,42.7,42.7c0,23.6-19.1,42.6-42.7,42.7c-23.6,0-42.6-19.1-42.7-42.7
		c0-23.6,19.1-42.6,42.7-42.7V192v-21.3c-47.1,0-85.3,38.2-85.3,85.3c0,47.1,38.2,85.3,85.3,85.3c47.1,0,85.3-38.2,85.3-85.3
		c0-47.1-38.2-85.3-85.3-85.3V192z"/>
	<path d="M413.9,320l-19.5-8.6c-3.2,7.3-4.8,15.1-4.8,22.8c0,14.5,5.6,28.8,16.1,39.5l0.2,0.2l1.3,1.3l0,0c4.2,4.2,6.2,9.6,6.3,15.1
		c0,5.5-2,10.9-6.2,15.1l0,0l0,0l0,0c-4.2,4.2-9.6,6.2-15.1,6.3c-5.5,0-10.9-2-15.1-6.2l0,0l0,0l-1.3-1.3l-0.2-0.2
		c-10.8-10.6-25.1-16.1-39.5-16.1c-7.7,0-15.5,1.6-22.8,4.8l8.6,19.5l-8.4-19.6c-20.7,8.9-34.2,29.2-34.3,51.7l0,0.1v3.6
		c0,11.8-9.6,21.3-21.3,21.3c-11.8,0-21.3-9.6-21.3-21.3v-1.9l0-0.5c-0.6-23.2-15.2-43.7-37-51.7l-7.4,20l8.6-19.5
		c-7.3-3.2-15.1-4.8-22.8-4.8c-14.5,0-28.8,5.6-39.5,16.1l-0.2,0.2l-1.3,1.3l0,0c-4.2,4.2-9.6,6.2-15.1,6.3c-5.5,0-10.9-2-15.1-6.2
		l0,0l0,0l0,0c-4.2-4.2-6.2-9.6-6.3-15.1c0-5.5,2-10.9,6.2-15.1l0,0l0,0l1.3-1.3l0.2-0.2c10.6-10.8,16.1-25.1,16.1-39.5
		c0-7.7-1.6-15.5-4.8-22.8l0.1,0.2c-8.9-20.7-29.2-34.2-51.7-34.3h-0.1H64c-11.8,0-21.3-9.6-21.3-21.3c0-11.8,9.6-21.3,21.3-21.3
		h1.9l0.5,0c23.2-0.6,43.7-15.2,51.7-37l-20-7.4l19.5,8.6c3.2-7.3,4.8-15.1,4.8-22.8c0-14.5-5.6-28.8-16.1-39.5l-0.2-0.2l-1.3-1.3
		l0,0c-4.2-4.2-6.2-9.6-6.3-15.1c0-5.5,2-10.9,6.2-15.1l0,0l0,0l0,0c4.2-4.2,9.6-6.2,15.1-6.3c5.5,0,10.9,2,15.1,6.2l0,0l0,0
		l1.3,1.3l0.2,0.2c10.8,10.6,25.1,16.1,39.5,16.1c7.7,0,15.5-1.6,22.8-4.8l-8.6-19.5v21.3h1.7c2.8,0,5.8-0.6,8.4-1.7
		c20.7-8.9,34.2-29.2,34.3-51.7l0-0.1V64c0-11.8,9.6-21.3,21.3-21.3c11.8,0,21.3,9.6,21.3,21.3v1.9l0,0.1
		c0.1,22.5,13.6,42.9,34.3,51.7l8.4-19.6l-8.6,19.5c7.3,3.2,15.1,4.8,22.8,4.8c14.5,0,28.8-5.6,39.5-16.1l0.2-0.2l1.3-1.3l0,0
		c4.2-4.2,9.6-6.2,15.1-6.3c5.5,0,10.9,2,15.1,6.2l0,0l0,0l0,0c4.2,4.2,6.2,9.6,6.3,15.1c0,5.5-2,10.9-6.2,15.1l0,0l0,0l-1.3,1.3
		l-0.2,0.2c-10.6,10.8-16.1,25.1-16.1,39.5c0,7.7,1.6,15.5,4.8,22.8l19.5-8.6h-21.3v1.7c0,2.8,0.6,5.8,1.7,8.4
		c8.9,20.7,29.2,34.2,51.7,34.3h0.1h3.6c11.8,0,21.3,9.6,21.3,21.3c0,11.8-9.6,21.3-21.3,21.3h-1.9H446
		c-22.5,0.1-42.9,13.6-51.7,34.3L413.9,320l-19.5-8.6L413.9,320l19.6,8.4c2.2-5.1,7.2-8.4,12.7-8.4h-0.1h1.9c35.4,0,64-28.6,64-64
		c0-35.4-28.6-64-64-64h-3.6h0.1c-5.5,0-10.5-3.3-12.7-8.4l-19.6,8.4h21.3v-1.7c0-3-0.6-5.9-1.8-8.6l-1.2-5.6c0-3.6,1.4-7.1,3.9-9.7
		l-15.2-14.9l15.1,15.1l1.3-1.3l0,0l0,0c12.4-12.4,18.7-28.9,18.7-45.2c0-16.3-6.3-32.8-18.8-45.3l0,0l0,0l0,0
		c-12.4-12.4-28.9-18.7-45.2-18.7c-16.3,0-32.8,6.3-45.3,18.8l0,0l-1.3,1.3l15.1,15.1l-14.9-15.2c-2.6,2.6-6.1,3.9-9.7,4l-5.6-1.2
		l-0.2-0.1c-5.1-2.2-8.4-7.2-8.4-12.7l0,0.1V64c0-35.4-28.6-64-64-64c-35.4,0-64,28.6-64,64v3.6l0-0.1c0,5.5-3.3,10.5-8.4,12.7
		l8.4,19.6V78.5h-1.7c-3,0-5.9,0.6-8.6,1.8l-5.6,1.2c-3.6,0-7.1-1.4-9.7-3.9l-14.9,15.2l15.1-15.1l-1.3-1.3l0,0l0,0
		C152.8,64,136.3,57.6,120,57.7c-16.3,0-32.8,6.3-45.3,18.8l0,0l0,0l0,0C62.2,88.9,55.9,105.4,56,121.7c0,16.3,6.3,32.8,18.8,45.3
		l0,0l1.3,1.3l15.1-15.1l-15.2,14.9c2.6,2.6,3.9,6.1,4,9.7l-1.2,5.6l-0.5,1.3c-2,5.3-7,8.9-12.7,9.1l0.5,21.3v-21.3H64
		c-35.4,0-64,28.6-64,64c0,35.4,28.6,64,64,64h3.6h-0.1c5.5,0,10.5,3.3,12.7,8.4l0.1,0.2l1.2,5.6c0,3.6-1.4,7.1-3.9,9.7l15.2,14.9
		l-15.1-15.1l-1.3,1.3l0,0l0,0C64,359.2,57.6,375.7,57.7,392c0,16.3,6.3,32.8,18.8,45.3l0,0l0,0l0,0c12.4,12.4,28.9,18.7,45.2,18.7
		c16.3,0,32.8-6.3,45.3-18.8l0,0l1.3-1.3l-15.1-15.1l14.9,15.2c2.6-2.6,6.1-3.9,9.7-4l5.6,1.2l1.2,0.5c5.3,2,8.9,7,9.1,12.7
		l21.3-0.5h-21.3v1.9c0,35.4,28.6,64,64,64c35.4,0,64-28.6,64-64v-3.6l0,0.1c0-5.5,3.3-10.5,8.4-12.7l0.2-0.1l5.6-1.2
		c3.6,0,7.1,1.4,9.7,3.9l14.9-15.2l-15.1,15.1l1.3,1.3l0,0l0,0c12.4,12.4,28.9,18.7,45.2,18.7c16.3,0,32.8-6.3,45.3-18.8l0,0l0,0
		l0,0c12.4-12.4,18.7-28.9,18.7-45.2c0-16.3-6.3-32.8-18.8-45.3l0,0l-1.3-1.3l-15.1,15.1l15.2-14.9c-2.6-2.7-3.9-6.1-4-9.7l1.2-5.6
		l0.1-0.2L413.9,320z"/>
</g>
</svg>
